<svg width="480" height="288" viewBox="0 0 480 288" fill="none" xmlns="http://www.w3.org/2000/svg">
<path d="M62.7201 0.761659V15.1933H53.099V78.3317H35.8612V15.2735H25.9996V0.761659H62.7201ZM89.7378 0.761659H106.976V78.3317H89.7378V45.9808H84.5664V78.3317H67.3286V0.761659H84.5664V31.469H89.7378V0.761659ZM131.107 63.8199H146.26V78.3317H113.869V0.761659H146.02V15.2735H131.107V31.7897H145.218V45.4997H131.107V63.8199ZM187.908 -1.07512e-05C194.75 -1.07512e-05 199.868 1.75049 203.262 5.2515C206.656 8.75251 208.353 14.1777 208.353 21.5272V57.5662C208.353 64.9424 206.656 70.381 203.262 73.882C199.868 77.383 194.75 79.1335 187.908 79.1335C174.385 79.1335 167.624 71.9444 167.624 57.5662V21.5272C167.624 7.17572 174.385 -1.07512e-05 187.908 -1.07512e-05ZM190.714 62.056V17.0774C190.714 14.886 189.806 13.7902 187.988 13.7902C187.213 13.7902 186.585 14.0842 186.104 14.6722C185.623 15.2334 185.383 16.0351 185.383 17.0774V62.056C185.383 63.0983 185.623 63.9134 186.104 64.5014C186.585 65.0626 187.213 65.3432 187.988 65.3432C189.806 65.3432 190.714 64.2475 190.714 62.056ZM245.633 15.1933L231.843 15.2735V31.8699L244.631 31.7897V45.5799L231.843 45.6601V78.3317H214.605V0.761659H245.633V15.1933ZM281.19 15.1933L267.399 15.2735V31.8699L280.187 31.7897V45.5799L267.399 45.6601V78.3317H250.161V0.761659H281.19V15.1933ZM285.718 0.761659H302.956V78.3317H285.718V0.761659ZM349.095 41.2103V60.6129C349.095 72.9867 342.561 79.1602 329.492 79.1335C315.969 79.1335 309.208 71.9444 309.208 57.5662V21.5272C309.208 7.17572 315.969 -1.07512e-05 329.492 -1.07512e-05C336.013 -1.07512e-05 340.904 1.48324 344.164 4.44975C347.452 7.38952 349.095 12.1199 349.095 18.6409V35.9588H332.018V17.0774C332.018 14.886 331.176 13.7902 329.492 13.7902C327.809 13.7902 326.967 14.886 326.967 17.0774V61.9759C326.967 64.1673 327.835 65.2631 329.572 65.2631C331.203 65.2631 332.018 64.1673 332.018 61.9759V41.2103H349.095ZM355.307 0.761659H372.545V78.3317H355.307V0.761659ZM402.609 78.3317L401.808 64.2208L394.993 64.1406L394.151 78.3317H376.352L384.57 0.761659H412.631L420.609 78.3317H402.609ZM395.875 50.4306H400.966L399.563 25.4558L399.001 16.1955H397.919L397.358 25.4558L395.875 50.4306ZM441.573 63.8199H454.281V78.3317H424.335V0.761659H441.573V63.8199Z" fill="white"/>
<path d="M52.3045 143.57C57.0669 144.837 60.6541 146.832 63.0662 149.553C65.5092 152.275 66.7308 156.388 66.7308 161.892V176.922C66.7308 183.385 64.8444 188.487 61.0716 192.229C57.2988 195.94 52.0262 197.95 45.2537 198.259V206.841H40.012V198.259C33.4869 197.827 28.539 196.064 25.1683 192.971C21.8284 189.848 20.1585 185.565 20.1585 180.122V164.165H40.1048V178.916C40.1048 179.937 40.3676 180.772 40.8934 181.421C41.45 182.07 42.2386 182.395 43.2591 182.395C44.1559 182.395 44.8826 182.101 45.4393 181.514C46.0268 180.926 46.3206 180.153 46.3206 179.195V165.139C46.3206 162.851 45.0218 161.258 42.4241 160.362L35.095 158.552C29.7142 157.47 25.8022 155.414 23.3592 152.383C20.9161 149.352 19.6946 144.93 19.6946 139.116V126.824C19.6946 121.072 21.4109 116.433 24.8436 112.908C28.3071 109.352 33.3632 107.311 40.012 106.785V97.1828H45.2537V106.785C51.7788 107.032 56.7885 108.733 60.283 111.887C63.8084 115.011 65.5711 119.263 65.5711 124.644V137.957H45.9031V125.803C45.9031 123.515 44.8981 122.371 42.888 122.371C40.9397 122.371 39.9502 123.422 39.9192 125.525V136.797C39.9192 138.9 40.9707 140.4 43.0735 141.297L52.3045 143.57ZM84.3095 107.249H97.205V197.332H77.8617V132.901H70.8109V119.727C75.5115 119.356 78.7895 118.134 80.6449 116.062C82.5313 113.99 83.7528 111.052 84.3095 107.249ZM105.831 176.319H124.664V198.862C124.664 204.831 120.922 207.8 113.438 207.769H106.109V201.599H110.609C113.021 201.599 114.212 200.656 114.181 198.77V197.332H105.831V176.319ZM138.578 112.537C142.351 108.64 147.84 106.692 155.046 106.692C162.282 106.692 167.786 108.64 171.559 112.537C175.332 116.433 177.218 121.83 177.218 128.726V176.133C177.218 183.091 175.332 188.518 171.559 192.415C167.786 196.311 162.251 198.259 154.953 198.259C147.809 198.259 142.351 196.327 138.578 192.461C134.805 188.565 132.919 183.122 132.919 176.133V128.726C132.919 121.83 134.805 116.433 138.578 112.537ZM157.829 179.937V125.015C157.829 122.603 156.901 121.412 155.046 121.443C153.283 121.443 152.401 122.634 152.401 125.015V179.937C152.401 182.349 153.283 183.555 155.046 183.555C156.901 183.555 157.829 182.349 157.829 179.937ZM189.37 112.537C193.143 108.64 198.632 106.692 205.837 106.692C213.073 106.692 218.578 108.64 222.351 112.537C226.124 116.433 228.01 121.83 228.01 128.726V176.133C228.01 183.091 226.124 188.518 222.351 192.415C218.578 196.311 213.043 198.259 205.744 198.259C198.601 198.259 193.143 196.327 189.37 192.461C185.597 188.565 183.711 183.122 183.711 176.133V128.726C183.711 121.83 185.597 116.433 189.37 112.537ZM208.62 179.937V125.015C208.62 122.603 207.693 121.412 205.837 121.443C204.074 121.443 203.193 122.634 203.193 125.015V179.937C203.193 182.349 204.074 183.555 205.837 183.555C207.693 183.555 208.62 182.349 208.62 179.937ZM240.161 112.537C243.934 108.64 249.423 106.692 256.629 106.692C263.865 106.692 269.37 108.64 273.142 112.537C276.915 116.433 278.802 121.83 278.802 128.726V176.133C278.802 183.091 276.915 188.518 273.142 192.415C269.37 196.311 263.834 198.259 256.536 198.259C249.392 198.259 243.934 196.327 240.161 192.461C236.389 188.565 234.502 183.122 234.502 176.133V128.726C234.502 121.83 236.389 116.433 240.161 112.537ZM259.412 179.937V125.015C259.412 122.603 258.484 121.412 256.629 121.443C254.866 121.443 253.985 122.634 253.985 125.015V179.937C253.985 182.349 254.866 183.555 256.629 183.555C258.484 183.555 259.412 182.349 259.412 179.937ZM287.196 176.319H306.029V198.862C306.029 204.831 302.287 207.8 294.803 207.769H287.474V201.599H291.974C294.386 201.599 295.576 200.656 295.545 198.77V197.332H287.196V176.319ZM319.943 112.537C323.716 108.64 329.205 106.692 336.41 106.692C343.646 106.692 349.151 108.64 352.924 112.537C356.697 116.433 358.583 121.83 358.583 128.726V176.133C358.583 183.091 356.697 188.518 352.924 192.415C349.151 196.311 343.616 198.259 336.317 198.259C329.174 198.259 323.716 196.327 319.943 192.461C316.17 188.565 314.284 183.122 314.284 176.133V128.726C314.284 121.83 316.17 116.433 319.943 112.537ZM339.193 179.937V125.015C339.193 122.603 338.266 121.412 336.41 121.443C334.647 121.443 333.766 122.634 333.766 125.015V179.937C333.766 182.349 334.647 183.555 336.41 183.555C338.266 183.555 339.193 182.349 339.193 179.937ZM370.734 112.537C374.507 108.64 379.996 106.692 387.202 106.692C394.438 106.692 399.943 108.64 403.715 112.537C407.488 116.433 409.375 121.83 409.375 128.726V176.133C409.375 183.091 407.488 188.518 403.715 192.415C399.943 196.311 394.407 198.259 387.109 198.259C379.965 198.259 374.507 196.327 370.734 192.461C366.962 188.565 365.075 183.122 365.075 176.133V128.726C365.075 121.83 366.962 116.433 370.734 112.537ZM389.985 179.937V125.015C389.985 122.603 389.057 121.412 387.202 121.443C385.439 121.443 384.558 122.634 384.558 125.015V179.937C384.558 182.349 385.439 183.555 387.202 183.555C389.057 183.555 389.985 182.349 389.985 179.937ZM421.526 112.537C425.299 108.64 430.788 106.692 437.993 106.692C445.23 106.692 450.734 108.64 454.507 112.537C458.28 116.433 460.166 121.83 460.166 128.726V176.133C460.166 183.091 458.28 188.518 454.507 192.415C450.734 196.311 445.199 198.259 437.901 198.259C430.757 198.259 425.299 196.327 421.526 192.461C417.753 188.565 415.867 183.122 415.867 176.133V128.726C415.867 121.83 417.753 116.433 421.526 112.537ZM440.777 179.937V125.015C440.777 122.603 439.849 121.412 437.993 121.443C436.231 121.443 435.349 122.634 435.349 125.015V179.937C435.349 182.349 436.231 183.555 437.993 183.555C439.849 183.555 440.777 182.349 440.777 179.937Z" fill="#007B34"/>
<path d="M40.6551 255.224C45.1223 255.971 47.3558 258.973 47.3558 264.229V274.901C47.3558 278.499 46.1228 281.41 43.6568 283.633C41.1908 285.837 37.6636 286.938 33.0752 286.938C23.5143 286.938 18.7338 282.532 18.7338 273.719V262.167H30.9528V274.84C30.9528 276.377 31.5794 277.145 32.8326 277.145C34.0252 277.145 34.6215 276.316 34.6215 274.659V263.167C34.6215 261.106 33.8129 260.075 32.1959 260.075H26.6777L24.9494 251.191H31.8927C33.5097 251.191 34.3183 250.17 34.3183 248.129V238.942C34.3183 237.446 33.7422 236.708 32.59 236.728C31.3974 236.728 30.7911 237.486 30.7708 239.002V249.372H18.8551V239.154C18.8551 235.354 20.0275 232.393 22.3722 230.27C24.7372 228.148 28.3452 227.087 33.1964 227.087C37.2997 227.087 40.5945 228.067 43.0807 230.028C45.567 231.968 46.8101 234.596 46.8101 237.911V246.037C46.8101 248.604 46.3452 250.585 45.4154 251.979C44.5058 253.354 42.919 254.294 40.6551 254.799V255.224ZM69.3972 251.797V262.682H50.0834V251.797H69.3972ZM90.1651 270.262H86.2538V286.332H73.2163V227.663H90.1651C94.4301 227.663 97.7249 228.906 100.049 231.392C102.394 233.858 103.567 237.315 103.567 241.761V255.466C103.567 259.852 102.354 263.42 99.9281 266.169C97.5227 268.898 94.2684 270.262 90.1651 270.262ZM87.497 259.317C89.2757 259.317 90.1651 258.154 90.1651 255.83V242.065C90.1651 239.781 89.2757 238.639 87.497 238.639H86.2538V259.317H87.497ZM122.212 227.087C127.387 227.087 131.257 228.411 133.825 231.059C136.392 233.706 137.675 237.81 137.675 243.368V270.626C137.675 276.205 136.392 280.318 133.825 282.966C131.257 285.614 127.387 286.938 122.212 286.938C111.984 286.938 106.87 281.501 106.87 270.626V243.368C106.87 232.514 111.984 227.087 122.212 227.087ZM124.334 274.022V240.003C124.334 238.345 123.647 237.517 122.273 237.517C121.686 237.517 121.211 237.739 120.848 238.184C120.484 238.608 120.302 239.215 120.302 240.003V274.022C120.302 274.81 120.484 275.427 120.848 275.871C121.211 276.296 121.686 276.508 122.273 276.508C123.647 276.508 124.334 275.679 124.334 274.022ZM142.404 227.663H155.441V286.332H142.404V227.663ZM179.848 256.467L178.999 243.308V227.663H191.46V286.332H178.817L172.904 255.709H172.298L173.086 269.14V286.332H160.686V227.663H173.723L179.241 256.467H179.848ZM222.628 227.663V238.578H215.351V286.332H202.314V238.639H194.855V227.663H222.628ZM267.923 258.255V272.93C267.923 282.289 262.981 286.958 253.097 286.938C242.869 286.938 237.755 281.501 237.755 270.626V243.368C237.755 232.514 242.869 227.087 253.097 227.087C258.029 227.087 261.728 228.208 264.194 230.452C266.68 232.676 267.923 236.253 267.923 241.185V254.284H255.007V240.003C255.007 238.345 254.37 237.517 253.097 237.517C251.824 237.517 251.187 238.345 251.187 240.003V273.961C251.187 275.619 251.844 276.447 253.158 276.447C254.391 276.447 255.007 275.619 255.007 273.961V258.255H267.923ZM287.448 227.087C292.623 227.087 296.494 228.411 299.061 231.059C301.628 233.706 302.911 237.81 302.911 243.368V270.626C302.911 276.205 301.628 280.318 299.061 282.966C296.494 285.614 292.623 286.938 287.448 286.938C277.22 286.938 272.106 281.501 272.106 270.626V243.368C272.106 232.514 277.22 227.087 287.448 227.087ZM289.571 274.022V240.003C289.571 238.345 288.883 237.517 287.509 237.517C286.923 237.517 286.448 237.739 286.084 238.184C285.72 238.608 285.538 239.215 285.538 240.003V274.022C285.538 274.81 285.72 275.427 286.084 275.871C286.448 276.296 286.923 276.508 287.509 276.508C288.883 276.508 289.571 275.679 289.571 274.022ZM326.802 256.467L325.953 243.308V227.663H338.415V286.332H325.771L319.859 255.709H319.253L320.041 269.14V286.332H307.64V227.663H320.678L326.196 256.467H326.802ZM369.582 227.663V238.578H362.306V286.332H349.268V238.639H341.809V227.663H369.582ZM349.268 238.639H341.809V227.663H369.582ZM386.106 275.356H397.566V286.332H373.068V227.663H397.385V238.639H386.106V251.13H396.778V261.5H386.106V275.356ZM431.493 247.522H418.638V239.578C418.638 238.083 417.981 237.335 416.667 237.335C415.393 237.335 414.747 238.022 414.726 239.397V246.764C414.726 248.139 415.414 249.119 416.788 249.705L422.822 251.191C425.935 252.02 428.279 253.323 429.856 255.102C431.453 256.881 432.251 259.569 432.251 263.167V272.991C432.251 277.418 430.907 280.864 428.219 283.33C425.53 285.796 421.761 287.029 416.909 287.029C411.937 287.029 408.177 286.008 405.63 283.967C403.083 281.905 401.81 278.944 401.81 275.083V264.653H414.848V274.295C414.848 274.962 415.019 275.508 415.363 275.932C415.727 276.356 416.242 276.569 416.909 276.569C417.496 276.569 417.971 276.377 418.334 275.993C418.718 275.609 418.91 275.103 418.91 274.477V265.29C418.91 263.794 418.062 262.753 416.364 262.167L411.573 260.984C408.056 260.277 405.499 258.933 403.902 256.952C402.305 254.971 401.507 252.08 401.507 248.28V240.245C401.507 236.183 402.811 232.979 405.418 230.634C408.026 228.269 411.816 227.087 416.788 227.087C421.457 227.087 425.076 228.128 427.643 230.21C430.21 232.271 431.493 235.142 431.493 238.82V247.522ZM462.145 227.663V238.578H454.869V286.332H441.831V238.639H434.372V227.663H462.145Z" fill="white"/>
</svg>
