<svg width="445" height="255" viewBox="0 0 445 255" fill="none" xmlns="http://www.w3.org/2000/svg">
<mask id="path-1-outside-1_1_414" maskUnits="userSpaceOnUse" x="-0.474304" y="0" width="443" height="70" fill="black">
<rect fill="white" x="-0.474304" width="443" height="70"/>
<path d="M20.9739 28.8643L21.6234 21.3105L23.845 1.8623H39.5335L27.7073 51.6963V68H13.0101V51.7646L1.11554 1.8623H17.1458L19.5042 21.3105L20.0853 28.8643H20.9739ZM57.0321 1.21289C62.8655 1.21289 67.2291 2.7054 70.123 5.69043C73.0168 8.67546 74.4638 13.3011 74.4638 19.5674V50.2949C74.4638 56.584 73.0168 61.221 70.123 64.2061C67.2291 67.1911 62.8655 68.6836 57.0321 68.6836C45.5022 68.6836 39.7372 62.554 39.7372 50.2949V19.5674C39.7372 7.33105 45.5022 1.21289 57.0321 1.21289ZM59.4247 54.123V15.7734C59.4247 13.9049 58.65 12.9707 57.1005 12.9707C56.4397 12.9707 55.9042 13.2214 55.4941 13.7227C55.0839 14.2012 54.8788 14.8848 54.8788 15.7734V54.123C54.8788 55.0117 55.0839 55.7067 55.4941 56.208C55.9042 56.6865 56.4397 56.9258 57.1005 56.9258C58.65 56.9258 59.4247 55.9915 59.4247 54.123ZM113.461 1.8623V54.2256C113.461 59.0335 111.98 62.668 109.018 65.1289C106.056 67.5671 101.84 68.7861 96.3716 68.7861C85.2746 68.7861 79.7147 63.9554 79.6919 54.2939V1.8623H94.4234V54.2256C94.4234 56.0485 95.1183 56.9486 96.5083 56.9258C97.9439 56.9258 98.6616 56.0257 98.6616 54.2256V1.8623H113.461ZM157.756 44.2793L158.234 33.2051L160.695 1.8623H181.613V68H167.599L167.668 48.1758L168.454 24.4551H167.599L163.634 68H150.817L146.955 24.3867H146.134L146.955 48.1074V68H132.975V1.8623H153.893L156.354 33.2051L156.901 44.2793H157.756ZM187.491 1.8623H202.188V68H187.491V1.8623ZM241.254 24.25H226.762V15.2949C226.762 13.6087 226.021 12.7656 224.54 12.7656C223.104 12.7656 222.375 13.5404 222.352 15.0898V23.3955C222.352 24.945 223.127 26.0501 224.677 26.7109L231.478 28.3857C234.988 29.32 237.631 30.7897 239.408 32.7949C241.208 34.8001 242.108 37.8307 242.108 41.8867V52.9609C242.108 57.9512 240.593 61.8363 237.562 64.6162C234.532 67.3962 230.282 68.7861 224.813 68.7861C219.208 68.7861 214.97 67.6354 212.099 65.334C209.227 63.0098 207.792 59.6715 207.792 55.3193V43.5615H222.489V54.4307C222.489 55.1826 222.683 55.7979 223.07 56.2764C223.48 56.7549 224.061 56.9941 224.813 56.9941C225.474 56.9941 226.01 56.7777 226.42 56.3447C226.853 55.9118 227.069 55.3421 227.069 54.6357V44.2793C227.069 42.5931 226.112 41.4196 224.198 40.7588L218.798 39.4258C214.833 38.6283 211.95 37.113 210.15 34.8799C208.35 32.6468 207.45 29.3883 207.45 25.1045V16.0469C207.45 11.4668 208.92 7.85514 211.859 5.21191C214.799 2.5459 219.071 1.21289 224.677 1.21289C229.94 1.21289 234.019 2.38639 236.913 4.7334C239.807 7.05762 241.254 10.2933 241.254 14.4404V24.25ZM280.32 24.25H265.828V15.2949C265.828 13.6087 265.087 12.7656 263.606 12.7656C262.17 12.7656 261.441 13.5404 261.418 15.0898V23.3955C261.418 24.945 262.193 26.0501 263.743 26.7109L270.544 28.3857C274.054 29.32 276.697 30.7897 278.474 32.7949C280.274 34.8001 281.174 37.8307 281.174 41.8867V52.9609C281.174 57.9512 279.659 61.8363 276.628 64.6162C273.598 67.3962 269.348 68.7861 263.879 68.7861C258.274 68.7861 254.036 67.6354 251.165 65.334C248.293 63.0098 246.858 59.6715 246.858 55.3193V43.5615H261.555V54.4307C261.555 55.1826 261.749 55.7979 262.136 56.2764C262.546 56.7549 263.127 56.9941 263.879 56.9941C264.54 56.9941 265.076 56.7777 265.486 56.3447C265.919 55.9118 266.135 55.3421 266.135 54.6357V44.2793C266.135 42.5931 265.178 41.4196 263.264 40.7588L257.864 39.4258C253.899 38.6283 251.016 37.113 249.216 34.8799C247.416 32.6468 246.516 29.3883 246.516 25.1045V16.0469C246.516 11.4668 247.986 7.85514 250.925 5.21191C253.865 2.5459 258.137 1.21289 263.743 1.21289C269.006 1.21289 273.085 2.38639 275.979 4.7334C278.873 7.05762 280.32 10.2933 280.32 14.4404V24.25ZM307.832 1.62305H317.334V68H303.081V20.5244H297.885V10.8174C301.349 10.5439 303.764 9.64388 305.132 8.11719C306.522 6.59049 307.422 4.42578 307.832 1.62305ZM326.458 5.51953C329.238 2.64844 333.283 1.21289 338.592 1.21289C343.924 1.21289 347.98 2.64844 350.76 5.51953C353.54 8.39062 354.93 12.3669 354.93 17.4482V52.3799C354.93 57.5068 353.54 61.5059 350.76 64.377C347.98 67.248 343.901 68.6836 338.524 68.6836C333.26 68.6836 329.238 67.2594 326.458 64.4111C323.678 61.54 322.288 57.5296 322.288 52.3799V17.4482C322.288 12.3669 323.678 8.39062 326.458 5.51953ZM340.643 55.1826V14.7139C340.643 12.9365 339.959 12.0592 338.592 12.082C337.293 12.082 336.644 12.9593 336.644 14.7139V55.1826C336.644 56.96 337.293 57.8486 338.592 57.8486C339.959 57.8486 340.643 56.96 340.643 55.1826ZM363.884 5.51953C366.664 2.64844 370.708 1.21289 376.017 1.21289C381.35 1.21289 385.406 2.64844 388.185 5.51953C390.965 8.39062 392.355 12.3669 392.355 17.4482V52.3799C392.355 57.5068 390.965 61.5059 388.185 64.377C385.406 67.248 381.327 68.6836 375.949 68.6836C370.685 68.6836 366.664 67.2594 363.884 64.4111C361.104 61.54 359.714 57.5296 359.714 52.3799V17.4482C359.714 12.3669 361.104 8.39062 363.884 5.51953ZM378.068 55.1826V14.7139C378.068 12.9365 377.385 12.0592 376.017 12.082C374.719 12.082 374.069 12.9593 374.069 14.7139V55.1826C374.069 56.96 374.719 57.8486 376.017 57.8486C377.385 57.8486 378.068 56.96 378.068 55.1826ZM400.215 3.63965C401.856 1.97624 404.146 1.14453 407.085 1.14453C410.025 1.14453 412.292 1.97624 413.887 3.63965C415.505 5.30306 416.314 7.52474 416.314 10.3047V14.8164C416.314 17.6191 415.505 19.8522 413.887 21.5156C412.292 23.1562 410.025 23.9766 407.085 23.9766C404.146 23.9766 401.856 23.1449 400.215 21.4814C398.597 19.818 397.789 17.5964 397.789 14.8164V10.3047C397.789 7.50195 398.597 5.28027 400.215 3.63965ZM426.124 1.48633H439.419L413.238 68H399.668L426.124 1.48633ZM408.145 15.5V9.62109C408.145 8.86914 407.792 8.49316 407.085 8.49316C406.333 8.49316 405.958 8.86914 405.958 9.62109V15.5C405.958 15.8646 406.071 16.1608 406.299 16.3887C406.55 16.5938 406.812 16.6963 407.085 16.6963C407.792 16.6963 408.145 16.2975 408.145 15.5ZM432.276 45.6123C435.215 45.6123 437.505 46.444 439.146 48.1074C440.787 49.748 441.607 51.9697 441.607 54.7725V59.5234C441.607 62.3262 440.787 64.5592 439.146 66.2227C437.505 67.8633 435.215 68.6836 432.276 68.6836C429.382 68.6836 427.103 67.8633 425.44 66.2227C423.799 64.5592 422.979 62.3262 422.979 59.5234V54.7725C422.979 51.9697 423.799 49.748 425.44 48.1074C427.103 46.444 429.382 45.6123 432.276 45.6123ZM433.335 60.2412V54.0547C433.335 53.3027 432.982 52.9382 432.276 52.9609C431.592 52.9609 431.25 53.3255 431.25 54.0547V60.2412C431.25 61.0387 431.592 61.4375 432.276 61.4375C432.982 61.4375 433.335 61.0387 433.335 60.2412Z"/>
</mask>
<path d="M20.9739 28.8643L21.6234 21.3105L23.845 1.8623H39.5335L27.7073 51.6963V68H13.0101V51.7646L1.11554 1.8623H17.1458L19.5042 21.3105L20.0853 28.8643H20.9739ZM57.0321 1.21289C62.8655 1.21289 67.2291 2.7054 70.123 5.69043C73.0168 8.67546 74.4638 13.3011 74.4638 19.5674V50.2949C74.4638 56.584 73.0168 61.221 70.123 64.2061C67.2291 67.1911 62.8655 68.6836 57.0321 68.6836C45.5022 68.6836 39.7372 62.554 39.7372 50.2949V19.5674C39.7372 7.33105 45.5022 1.21289 57.0321 1.21289ZM59.4247 54.123V15.7734C59.4247 13.9049 58.65 12.9707 57.1005 12.9707C56.4397 12.9707 55.9042 13.2214 55.4941 13.7227C55.0839 14.2012 54.8788 14.8848 54.8788 15.7734V54.123C54.8788 55.0117 55.0839 55.7067 55.4941 56.208C55.9042 56.6865 56.4397 56.9258 57.1005 56.9258C58.65 56.9258 59.4247 55.9915 59.4247 54.123ZM113.461 1.8623V54.2256C113.461 59.0335 111.98 62.668 109.018 65.1289C106.056 67.5671 101.84 68.7861 96.3716 68.7861C85.2746 68.7861 79.7147 63.9554 79.6919 54.2939V1.8623H94.4234V54.2256C94.4234 56.0485 95.1183 56.9486 96.5083 56.9258C97.9439 56.9258 98.6616 56.0257 98.6616 54.2256V1.8623H113.461ZM157.756 44.2793L158.234 33.2051L160.695 1.8623H181.613V68H167.599L167.668 48.1758L168.454 24.4551H167.599L163.634 68H150.817L146.955 24.3867H146.134L146.955 48.1074V68H132.975V1.8623H153.893L156.354 33.2051L156.901 44.2793H157.756ZM187.491 1.8623H202.188V68H187.491V1.8623ZM241.254 24.25H226.762V15.2949C226.762 13.6087 226.021 12.7656 224.54 12.7656C223.104 12.7656 222.375 13.5404 222.352 15.0898V23.3955C222.352 24.945 223.127 26.0501 224.677 26.7109L231.478 28.3857C234.988 29.32 237.631 30.7897 239.408 32.7949C241.208 34.8001 242.108 37.8307 242.108 41.8867V52.9609C242.108 57.9512 240.593 61.8363 237.562 64.6162C234.532 67.3962 230.282 68.7861 224.813 68.7861C219.208 68.7861 214.97 67.6354 212.099 65.334C209.227 63.0098 207.792 59.6715 207.792 55.3193V43.5615H222.489V54.4307C222.489 55.1826 222.683 55.7979 223.07 56.2764C223.48 56.7549 224.061 56.9941 224.813 56.9941C225.474 56.9941 226.01 56.7777 226.42 56.3447C226.853 55.9118 227.069 55.3421 227.069 54.6357V44.2793C227.069 42.5931 226.112 41.4196 224.198 40.7588L218.798 39.4258C214.833 38.6283 211.95 37.113 210.15 34.8799C208.35 32.6468 207.45 29.3883 207.45 25.1045V16.0469C207.45 11.4668 208.92 7.85514 211.859 5.21191C214.799 2.5459 219.071 1.21289 224.677 1.21289C229.94 1.21289 234.019 2.38639 236.913 4.7334C239.807 7.05762 241.254 10.2933 241.254 14.4404V24.25ZM280.32 24.25H265.828V15.2949C265.828 13.6087 265.087 12.7656 263.606 12.7656C262.17 12.7656 261.441 13.5404 261.418 15.0898V23.3955C261.418 24.945 262.193 26.0501 263.743 26.7109L270.544 28.3857C274.054 29.32 276.697 30.7897 278.474 32.7949C280.274 34.8001 281.174 37.8307 281.174 41.8867V52.9609C281.174 57.9512 279.659 61.8363 276.628 64.6162C273.598 67.3962 269.348 68.7861 263.879 68.7861C258.274 68.7861 254.036 67.6354 251.165 65.334C248.293 63.0098 246.858 59.6715 246.858 55.3193V43.5615H261.555V54.4307C261.555 55.1826 261.749 55.7979 262.136 56.2764C262.546 56.7549 263.127 56.9941 263.879 56.9941C264.54 56.9941 265.076 56.7777 265.486 56.3447C265.919 55.9118 266.135 55.3421 266.135 54.6357V44.2793C266.135 42.5931 265.178 41.4196 263.264 40.7588L257.864 39.4258C253.899 38.6283 251.016 37.113 249.216 34.8799C247.416 32.6468 246.516 29.3883 246.516 25.1045V16.0469C246.516 11.4668 247.986 7.85514 250.925 5.21191C253.865 2.5459 258.137 1.21289 263.743 1.21289C269.006 1.21289 273.085 2.38639 275.979 4.7334C278.873 7.05762 280.32 10.2933 280.32 14.4404V24.25ZM307.832 1.62305H317.334V68H303.081V20.5244H297.885V10.8174C301.349 10.5439 303.764 9.64388 305.132 8.11719C306.522 6.59049 307.422 4.42578 307.832 1.62305ZM326.458 5.51953C329.238 2.64844 333.283 1.21289 338.592 1.21289C343.924 1.21289 347.98 2.64844 350.76 5.51953C353.54 8.39062 354.93 12.3669 354.93 17.4482V52.3799C354.93 57.5068 353.54 61.5059 350.76 64.377C347.98 67.248 343.901 68.6836 338.524 68.6836C333.26 68.6836 329.238 67.2594 326.458 64.4111C323.678 61.54 322.288 57.5296 322.288 52.3799V17.4482C322.288 12.3669 323.678 8.39062 326.458 5.51953ZM340.643 55.1826V14.7139C340.643 12.9365 339.959 12.0592 338.592 12.082C337.293 12.082 336.644 12.9593 336.644 14.7139V55.1826C336.644 56.96 337.293 57.8486 338.592 57.8486C339.959 57.8486 340.643 56.96 340.643 55.1826ZM363.884 5.51953C366.664 2.64844 370.708 1.21289 376.017 1.21289C381.35 1.21289 385.406 2.64844 388.185 5.51953C390.965 8.39062 392.355 12.3669 392.355 17.4482V52.3799C392.355 57.5068 390.965 61.5059 388.185 64.377C385.406 67.248 381.327 68.6836 375.949 68.6836C370.685 68.6836 366.664 67.2594 363.884 64.4111C361.104 61.54 359.714 57.5296 359.714 52.3799V17.4482C359.714 12.3669 361.104 8.39062 363.884 5.51953ZM378.068 55.1826V14.7139C378.068 12.9365 377.385 12.0592 376.017 12.082C374.719 12.082 374.069 12.9593 374.069 14.7139V55.1826C374.069 56.96 374.719 57.8486 376.017 57.8486C377.385 57.8486 378.068 56.96 378.068 55.1826ZM400.215 3.63965C401.856 1.97624 404.146 1.14453 407.085 1.14453C410.025 1.14453 412.292 1.97624 413.887 3.63965C415.505 5.30306 416.314 7.52474 416.314 10.3047V14.8164C416.314 17.6191 415.505 19.8522 413.887 21.5156C412.292 23.1562 410.025 23.9766 407.085 23.9766C404.146 23.9766 401.856 23.1449 400.215 21.4814C398.597 19.818 397.789 17.5964 397.789 14.8164V10.3047C397.789 7.50195 398.597 5.28027 400.215 3.63965ZM426.124 1.48633H439.419L413.238 68H399.668L426.124 1.48633ZM408.145 15.5V9.62109C408.145 8.86914 407.792 8.49316 407.085 8.49316C406.333 8.49316 405.958 8.86914 405.958 9.62109V15.5C405.958 15.8646 406.071 16.1608 406.299 16.3887C406.55 16.5938 406.812 16.6963 407.085 16.6963C407.792 16.6963 408.145 16.2975 408.145 15.5ZM432.276 45.6123C435.215 45.6123 437.505 46.444 439.146 48.1074C440.787 49.748 441.607 51.9697 441.607 54.7725V59.5234C441.607 62.3262 440.787 64.5592 439.146 66.2227C437.505 67.8633 435.215 68.6836 432.276 68.6836C429.382 68.6836 427.103 67.8633 425.44 66.2227C423.799 64.5592 422.979 62.3262 422.979 59.5234V54.7725C422.979 51.9697 423.799 49.748 425.44 48.1074C427.103 46.444 429.382 45.6123 432.276 45.6123ZM433.335 60.2412V54.0547C433.335 53.3027 432.982 52.9382 432.276 52.9609C431.592 52.9609 431.25 53.3255 431.25 54.0547V60.2412C431.25 61.0387 431.592 61.4375 432.276 61.4375C432.982 61.4375 433.335 61.0387 433.335 60.2412Z" fill="white"/>
<path d="M20.9739 28.8643V29.7452H21.7824L21.8516 28.9397L20.9739 28.8643ZM21.6234 21.3105L20.7481 21.2106L20.7467 21.2228L20.7457 21.2351L21.6234 21.3105ZM23.845 1.8623V0.981407H23.059L22.9698 1.76232L23.845 1.8623ZM39.5335 1.8623L40.3906 2.0657L40.6479 0.981407H39.5335V1.8623ZM27.7073 51.6963L26.8502 51.4929L26.8264 51.5932V51.6963H27.7073ZM27.7073 68V68.8809H28.5882V68H27.7073ZM13.0101 68H12.1292V68.8809H13.0101V68ZM13.0101 51.7646H13.891V51.6611L13.867 51.5604L13.0101 51.7646ZM1.11554 1.8623V0.981407H-2.98023e-06L0.258647 2.06655L1.11554 1.8623ZM17.1458 1.8623L18.0203 1.75626L17.9263 0.981407H17.1458V1.8623ZM19.5042 21.3105L20.3825 21.243L20.381 21.2237L20.3787 21.2045L19.5042 21.3105ZM20.0853 28.8643L19.207 28.9318L19.2695 29.7452H20.0853V28.8643ZM20.9739 28.8643L21.8516 28.9397L22.501 21.386L21.6234 21.3105L20.7457 21.2351L20.0963 28.7888L20.9739 28.8643ZM21.6234 21.3105L22.4986 21.4105L24.7202 1.96229L23.845 1.8623L22.9698 1.76232L20.7481 21.2106L21.6234 21.3105ZM23.845 1.8623V2.7432H39.5335V1.8623V0.981407H23.845V1.8623ZM39.5335 1.8623L38.6764 1.65891L26.8502 51.4929L27.7073 51.6963L28.5644 51.8997L40.3906 2.0657L39.5335 1.8623ZM27.7073 51.6963H26.8264V68H27.7073H28.5882V51.6963H27.7073ZM27.7073 68V67.1191H13.0101V68V68.8809H27.7073V68ZM13.0101 68H13.891V51.7646H13.0101H12.1292V68H13.0101ZM13.0101 51.7646L13.867 51.5604L1.97243 1.65806L1.11554 1.8623L0.258647 2.06655L12.1532 51.9689L13.0101 51.7646ZM1.11554 1.8623V2.7432H17.1458V1.8623V0.981407H1.11554V1.8623ZM17.1458 1.8623L16.2713 1.96835L18.6297 21.4166L19.5042 21.3105L20.3787 21.2045L18.0203 1.75626L17.1458 1.8623ZM19.5042 21.3105L18.6259 21.3781L19.207 28.9318L20.0853 28.8643L20.9636 28.7967L20.3825 21.243L19.5042 21.3105ZM20.0853 28.8643V29.7452H20.9739V28.8643V27.9834H20.0853V28.8643ZM70.123 5.69043L70.7554 5.07727L70.123 5.69043ZM55.4941 13.7227L56.1629 14.2959L56.1694 14.2883L56.1758 14.2805L55.4941 13.7227ZM55.4941 56.208L54.8123 56.7658L54.8187 56.7736L54.8252 56.7813L55.4941 56.208ZM57.0321 1.21289V2.09379C62.725 2.09379 66.8201 3.54913 69.4905 6.30359L70.123 5.69043L70.7554 5.07727C67.638 1.86168 63.0059 0.331993 57.0321 0.331993V1.21289ZM70.123 5.69043L69.4905 6.30359C72.1603 9.05745 73.5829 13.416 73.5829 19.5674H74.4638H75.3447C75.3447 13.1862 73.8734 8.29347 70.7554 5.07727L70.123 5.69043ZM74.4638 19.5674H73.5829V50.2949H74.4638H75.3447V19.5674H74.4638ZM74.4638 50.2949H73.5829C73.5829 56.4701 72.1598 60.8395 69.4905 63.5929L70.123 64.2061L70.7554 64.8192C73.8739 61.6025 75.3447 56.6978 75.3447 50.2949H74.4638ZM70.123 64.2061L69.4905 63.5929C66.8201 66.3474 62.725 67.8027 57.0321 67.8027V68.6836V69.5645C63.0059 69.5645 67.638 68.0348 70.7554 64.8192L70.123 64.2061ZM57.0321 68.6836V67.8027C51.4172 67.8027 47.3642 66.3128 44.7026 63.4829C42.0315 60.6429 40.6181 56.3017 40.6181 50.2949H39.7372H38.8563C38.8563 56.5473 40.3254 61.4004 43.4193 64.6899C46.5227 67.9896 51.1171 69.5645 57.0321 69.5645V68.6836ZM39.7372 50.2949H40.6181V19.5674H39.7372H38.8563V50.2949H39.7372ZM39.7372 19.5674H40.6181C40.6181 13.5724 42.0313 9.23997 44.7021 6.40562C47.3635 3.58111 51.4168 2.09379 57.0321 2.09379V1.21289V0.331993C51.1176 0.331993 46.5233 1.90376 43.4198 5.19741C40.3256 8.48122 38.8563 13.3261 38.8563 19.5674H39.7372ZM59.4247 54.123H60.3056V15.7734H59.4247H58.5438V54.123H59.4247ZM59.4247 15.7734H60.3056C60.3056 14.7394 60.0946 13.7999 59.5217 13.1091C58.9227 12.3867 58.0589 12.0898 57.1005 12.0898V12.9707V13.8516C57.6915 13.8516 57.9899 14.0219 58.1656 14.2337C58.3674 14.4771 58.5438 14.939 58.5438 15.7734H59.4247ZM57.1005 12.9707V12.0898C56.1817 12.0898 55.3936 12.4543 54.8123 13.1648L55.4941 13.7227L56.1758 14.2805C56.4148 13.9884 56.6977 13.8516 57.1005 13.8516V12.9707ZM55.4941 13.7227L54.8252 13.1494C54.2314 13.8422 53.9979 14.7598 53.9979 15.7734H54.8788H55.7597C55.7597 15.0097 55.9364 14.5601 56.1629 14.2959L55.4941 13.7227ZM54.8788 15.7734H53.9979V54.123H54.8788H55.7597V15.7734H54.8788ZM54.8788 54.123H53.9979C53.9979 55.1399 54.2327 56.0574 54.8123 56.7658L55.4941 56.208L56.1758 55.6502C55.9351 55.356 55.7597 54.8835 55.7597 54.123H54.8788ZM55.4941 56.208L54.8252 56.7813C55.4118 57.4656 56.1968 57.8067 57.1005 57.8067V56.9258V56.0449C56.6826 56.0449 56.3966 55.9074 56.1629 55.6347L55.4941 56.208ZM57.1005 56.9258V57.8067C58.0589 57.8067 58.9227 57.5098 59.5217 56.7874C60.0946 56.0966 60.3056 55.1571 60.3056 54.123H59.4247H58.5438C58.5438 54.9575 58.3674 55.4194 58.1656 55.6628C57.9899 55.8746 57.6915 56.0449 57.1005 56.0449V56.9258ZM113.461 1.8623H114.342V0.981407H113.461V1.8623ZM109.018 65.1289L109.578 65.8091L109.581 65.8065L109.018 65.1289ZM79.6919 54.2939H78.811V54.296L79.6919 54.2939ZM79.6919 1.8623V0.981407H78.811V1.8623H79.6919ZM94.4234 1.8623H95.3043V0.981407H94.4234V1.8623ZM96.5083 56.9258V56.0449H96.5011L96.4939 56.045L96.5083 56.9258ZM98.6616 1.8623V0.981407H97.7807V1.8623H98.6616ZM113.461 1.8623H112.581V54.2256H113.461H114.342V1.8623H113.461ZM113.461 54.2256H112.581C112.581 58.8425 111.167 62.1983 108.455 64.4513L109.018 65.1289L109.581 65.8065C112.794 63.1376 114.342 59.2245 114.342 54.2256H113.461ZM109.018 65.1289L108.458 64.4488C105.709 66.7117 101.721 67.9052 96.3716 67.9052V68.7861V69.667C101.959 69.667 106.403 68.4224 109.578 65.8091L109.018 65.1289ZM96.3716 68.7861V67.9052C90.9314 67.9052 87.0123 66.7185 84.4567 64.4981C81.9243 62.2979 80.5838 58.9525 80.5728 54.2919L79.6919 54.2939L78.811 54.296C78.8228 59.2969 80.2736 63.1976 83.3012 65.828C86.3055 68.4384 90.7148 69.667 96.3716 69.667V68.7861ZM79.6919 54.2939H80.5728V1.8623H79.6919H78.811V54.2939H79.6919ZM79.6919 1.8623V2.7432H94.4234V1.8623V0.981407H79.6919V1.8623ZM94.4234 1.8623H93.5425V54.2256H94.4234H95.3043V1.8623H94.4234ZM94.4234 54.2256H93.5425C93.5425 55.2228 93.728 56.1335 94.2474 56.8062C94.803 57.5258 95.619 57.8214 96.5228 57.8066L96.5083 56.9258L96.4939 56.045C96.0077 56.053 95.7812 55.9099 95.6418 55.7295C95.4663 55.5021 95.3043 55.0513 95.3043 54.2256H94.4234ZM96.5083 56.9258V57.8067C97.4215 57.8067 98.2454 57.5105 98.812 56.8C99.3483 56.1275 99.5425 55.2193 99.5425 54.2256H98.6616H97.7807C97.7807 55.032 97.6161 55.4739 97.4346 55.7015C97.2835 55.891 97.0307 56.0449 96.5083 56.0449V56.9258ZM98.6616 54.2256H99.5425V1.8623H98.6616H97.7807V54.2256H98.6616ZM98.6616 1.8623V2.7432H113.461V1.8623V0.981407H98.6616V1.8623ZM157.756 44.2793V45.1602H158.599L158.636 44.3173L157.756 44.2793ZM158.234 33.2051L157.356 33.1361L157.355 33.1516L157.354 33.167L158.234 33.2051ZM160.695 1.8623V0.981407H159.881L159.817 1.79335L160.695 1.8623ZM181.613 1.8623H182.494V0.981407H181.613V1.8623ZM181.613 68V68.8809H182.494V68H181.613ZM167.599 68L166.718 67.997L166.715 68.8809H167.599V68ZM167.668 48.1758L166.787 48.1466L166.787 48.1597L166.787 48.1727L167.668 48.1758ZM168.454 24.4551L169.334 24.4843L169.364 23.5742H168.454V24.4551ZM167.599 24.4551V23.5742H166.795L166.722 24.3752L167.599 24.4551ZM163.634 68V68.8809H164.439L164.512 68.0799L163.634 68ZM150.817 68L149.94 68.0777L150.011 68.8809H150.817V68ZM146.955 24.3867L147.832 24.309L147.761 23.5058H146.955V24.3867ZM146.134 24.3867V23.5058H145.223L145.254 24.4172L146.134 24.3867ZM146.955 48.1074H147.836V48.0922L147.835 48.077L146.955 48.1074ZM146.955 68V68.8809H147.836V68H146.955ZM132.975 68H132.094V68.8809H132.975V68ZM132.975 1.8623V0.981407H132.094V1.8623H132.975ZM153.893 1.8623L154.771 1.79335L154.708 0.981407H153.893V1.8623ZM156.354 33.2051L157.234 33.1616L157.233 33.1489L157.232 33.1361L156.354 33.2051ZM156.901 44.2793L156.021 44.3227L156.063 45.1602H156.901V44.2793ZM157.756 44.2793L158.636 44.3173L159.114 33.2431L158.234 33.2051L157.354 33.167L156.876 44.2413L157.756 44.2793ZM158.234 33.2051L159.112 33.274L161.573 1.93126L160.695 1.8623L159.817 1.79335L157.356 33.1361L158.234 33.2051ZM160.695 1.8623V2.7432H181.613V1.8623V0.981407H160.695V1.8623ZM181.613 1.8623H180.732V68H181.613H182.494V1.8623H181.613ZM181.613 68V67.1191H167.599V68V68.8809H181.613V68ZM167.599 68L168.48 68.003L168.549 48.1788L167.668 48.1758L166.787 48.1727L166.718 67.997L167.599 68ZM167.668 48.1758L168.548 48.205L169.334 24.4843L168.454 24.4551L167.573 24.4259L166.787 48.1466L167.668 48.1758ZM168.454 24.4551V23.5742H167.599V24.4551V25.336H168.454V24.4551ZM167.599 24.4551L166.722 24.3752L162.757 67.9201L163.634 68L164.512 68.0799L168.477 24.535L167.599 24.4551ZM163.634 68V67.1191H150.817V68V68.8809H163.634V68ZM150.817 68L151.695 67.9223L147.832 24.309L146.955 24.3867L146.077 24.4644L149.94 68.0777L150.817 68ZM146.955 24.3867V23.5058H146.134V24.3867V25.2676H146.955V24.3867ZM146.134 24.3867L145.254 24.4172L146.074 48.1379L146.955 48.1074L147.835 48.077L147.015 24.3563L146.134 24.3867ZM146.955 48.1074H146.074V68H146.955H147.836V48.1074H146.955ZM146.955 68V67.1191H132.975V68V68.8809H146.955V68ZM132.975 68H133.856V1.8623H132.975H132.094V68H132.975ZM132.975 1.8623V2.7432H153.893V1.8623V0.981407H132.975V1.8623ZM153.893 1.8623L153.015 1.93126L155.476 33.274L156.354 33.2051L157.232 33.1361L154.771 1.79335L153.893 1.8623ZM156.354 33.2051L155.474 33.2485L156.021 44.3227L156.901 44.2793L157.781 44.2358L157.234 33.1616L156.354 33.2051ZM156.901 44.2793V45.1602H157.756V44.2793V43.3984H156.901V44.2793ZM187.491 1.8623V0.981407H186.61V1.8623H187.491ZM202.188 1.8623H203.069V0.981407H202.188V1.8623ZM202.188 68V68.8809H203.069V68H202.188ZM187.491 68H186.61V68.8809H187.491V68ZM187.491 1.8623V2.7432H202.188V1.8623V0.981407H187.491V1.8623ZM202.188 1.8623H201.307V68H202.188H203.069V1.8623H202.188ZM202.188 68V67.1191H187.491V68V68.8809H202.188V68ZM187.491 68H188.371V1.8623H187.491H186.61V68H187.491ZM241.254 24.25V25.1309H242.135V24.25H241.254ZM226.762 24.25H225.881V25.1309H226.762V24.25ZM222.352 15.0898L221.472 15.0769V15.0898H222.352ZM224.677 26.7109L224.331 27.5212L224.397 27.5492L224.466 27.5663L224.677 26.7109ZM231.478 28.3857L231.705 27.5345L231.697 27.5324L231.689 27.5304L231.478 28.3857ZM239.408 32.7949L238.749 33.3792L238.753 33.3834L239.408 32.7949ZM212.099 65.334L211.544 66.0187L211.548 66.0213L212.099 65.334ZM207.792 43.5615V42.6806H206.911V43.5615H207.792ZM222.489 43.5615H223.37V42.6806H222.489V43.5615ZM223.07 56.2764L222.386 56.8306L222.393 56.8402L222.401 56.8496L223.07 56.2764ZM226.42 56.3447L225.797 55.7218L225.789 55.7303L225.78 55.7389L226.42 56.3447ZM224.198 40.7588L224.486 39.9261L224.448 39.9131L224.409 39.9036L224.198 40.7588ZM218.798 39.4258L219.009 38.5706L218.99 38.566L218.971 38.5622L218.798 39.4258ZM210.15 34.8799L210.836 34.327L210.15 34.8799ZM211.859 5.21191L212.448 5.86694L212.451 5.86441L211.859 5.21191ZM236.913 4.7334L236.358 5.41758L236.361 5.42021L236.913 4.7334ZM241.254 24.25V23.3691H226.762V24.25V25.1309H241.254V24.25ZM226.762 24.25H227.643V15.2949H226.762H225.881V24.25H226.762ZM226.762 15.2949H227.643C227.643 14.3421 227.436 13.4629 226.868 12.8166C226.281 12.1485 225.448 11.8847 224.54 11.8847V12.7656V13.6465C225.113 13.6465 225.391 13.8043 225.544 13.9793C225.717 14.1761 225.881 14.5616 225.881 15.2949H226.762ZM224.54 12.7656V11.8847C223.667 11.8847 222.858 12.1234 222.275 12.7429C221.703 13.3503 221.485 14.1813 221.472 15.0769L222.352 15.0898L223.233 15.1028C223.243 14.4489 223.4 14.1178 223.558 13.9504C223.704 13.7952 223.977 13.6465 224.54 13.6465V12.7656ZM222.352 15.0898H221.472V23.3955H222.352H223.233V15.0898H222.352ZM222.352 23.3955H221.472C221.472 24.3235 221.706 25.1702 222.212 25.8921C222.715 26.6091 223.442 27.1423 224.331 27.5212L224.677 26.7109L225.022 25.9007C224.361 25.6188 223.927 25.269 223.655 24.8808C223.386 24.4976 223.233 24.017 223.233 23.3955H222.352ZM224.677 26.7109L224.466 27.5663L231.268 29.2411L231.478 28.3857L231.689 27.5304L224.887 25.8556L224.677 26.7109ZM231.478 28.3857L231.252 29.237C234.651 30.1421 237.121 31.5421 238.749 33.3792L239.408 32.7949L240.067 32.2106C238.141 30.0373 235.324 28.4979 231.705 27.5345L231.478 28.3857ZM239.408 32.7949L238.753 33.3834C240.349 35.1621 241.227 37.9414 241.227 41.8867H242.108H242.989C242.989 37.7201 242.067 34.4381 240.064 32.2065L239.408 32.7949ZM242.108 41.8867H241.227V52.9609H242.108H242.989V41.8867H242.108ZM242.108 52.9609H241.227C241.227 57.7613 239.778 61.3889 236.967 63.9671L237.562 64.6162L238.158 65.2654C241.408 62.2836 242.989 58.141 242.989 52.9609H242.108ZM237.562 64.6162L236.967 63.9671C234.146 66.5544 230.136 67.9052 224.813 67.9052V68.7861V69.667C230.428 69.667 234.917 68.2379 238.158 65.2654L237.562 64.6162ZM224.813 68.7861V67.9052C219.308 67.9052 215.301 66.7721 212.65 64.6467L212.099 65.334L211.548 66.0213C214.638 68.4988 219.107 69.667 224.813 69.667V68.7861ZM212.099 65.334L212.653 64.6493C210.026 62.523 208.673 59.4586 208.673 55.3193H207.792H206.911C206.911 59.8845 208.429 63.4966 211.544 66.0187L212.099 65.334ZM207.792 55.3193H208.673V43.5615H207.792H206.911V55.3193H207.792ZM207.792 43.5615V44.4424H222.489V43.5615V42.6806H207.792V43.5615ZM222.489 43.5615H221.608V54.4307H222.489H223.37V43.5615H222.489ZM222.489 54.4307H221.608C221.608 55.3383 221.845 56.1628 222.386 56.8306L223.07 56.2764L223.755 55.7221C223.521 55.4329 223.37 55.027 223.37 54.4307H222.489ZM223.07 56.2764L222.401 56.8496C223.011 57.5614 223.859 57.875 224.813 57.875V56.9941V56.1132C224.264 56.1132 223.949 55.9484 223.739 55.7031L223.07 56.2764ZM224.813 56.9941V57.875C225.687 57.875 226.464 57.579 227.059 56.9506L226.42 56.3447L225.78 55.7389C225.555 55.9763 225.261 56.1132 224.813 56.1132V56.9941ZM226.42 56.3447L227.043 56.9676C227.666 56.3439 227.95 55.5368 227.95 54.6357H227.069H226.188C226.188 55.1474 226.039 55.4797 225.797 55.7218L226.42 56.3447ZM227.069 54.6357H227.95V44.2793H227.069H226.188V54.6357H227.069ZM227.069 44.2793H227.95C227.95 43.2578 227.656 42.3397 227.034 41.5778C226.423 40.8281 225.547 40.2925 224.486 39.9261L224.198 40.7588L223.911 41.5915C224.764 41.8859 225.323 42.2674 225.669 42.6913C226.004 43.1028 226.188 43.6146 226.188 44.2793H227.069ZM224.198 40.7588L224.409 39.9036L219.009 38.5706L218.798 39.4258L218.587 40.281L223.987 41.614L224.198 40.7588ZM218.798 39.4258L218.971 38.5622C215.127 37.7888 212.463 36.3453 210.836 34.327L210.15 34.8799L209.464 35.4327C211.438 37.8806 214.539 39.4677 218.624 40.2894L218.798 39.4258ZM210.15 34.8799L210.836 34.327C209.211 32.3114 208.331 29.2825 208.331 25.1045H207.45H206.569C206.569 29.4941 207.489 32.9822 209.464 35.4327L210.15 34.8799ZM207.45 25.1045H208.331V16.0469H207.45H206.569V25.1045H207.45ZM207.45 16.0469H208.331C208.331 11.673 209.725 8.31599 212.448 5.86693L211.859 5.21191L211.27 4.5569C208.115 7.39429 206.569 11.2606 206.569 16.0469H207.45ZM211.859 5.21191L212.451 5.86441C215.172 3.39632 219.2 2.09379 224.677 2.09379V1.21289V0.331993C218.942 0.331993 214.425 1.69548 211.267 4.55942L211.859 5.21191ZM224.677 1.21289V2.09379C229.82 2.09379 233.675 3.24129 236.358 5.41757L236.913 4.7334L237.468 4.04923C234.363 1.53149 230.061 0.331993 224.677 0.331993V1.21289ZM236.913 4.7334L236.361 5.42021C239.021 7.55617 240.373 10.5248 240.373 14.4404H241.254H242.135C242.135 10.0618 240.593 6.55907 237.465 4.04659L236.913 4.7334ZM241.254 14.4404H240.373V24.25H241.254H242.135V14.4404H241.254ZM280.32 24.25V25.1309H281.201V24.25H280.32ZM265.828 24.25H264.947V25.1309H265.828V24.25ZM261.418 15.0898L260.538 15.0769V15.0898H261.418ZM263.743 26.7109L263.397 27.5212L263.463 27.5492L263.532 27.5663L263.743 26.7109ZM270.544 28.3857L270.771 27.5345L270.763 27.5324L270.755 27.5304L270.544 28.3857ZM278.474 32.7949L277.815 33.3792L277.819 33.3834L278.474 32.7949ZM251.165 65.334L250.61 66.0187L250.614 66.0213L251.165 65.334ZM246.858 43.5615V42.6806H245.977V43.5615H246.858ZM261.555 43.5615H262.436V42.6806H261.555V43.5615ZM262.136 56.2764L261.452 56.8306L261.459 56.8402L261.467 56.8496L262.136 56.2764ZM265.486 56.3447L264.863 55.7218L264.855 55.7303L264.846 55.7389L265.486 56.3447ZM263.264 40.7588L263.552 39.9261L263.514 39.9131L263.475 39.9036L263.264 40.7588ZM257.864 39.4258L258.075 38.5706L258.056 38.566L258.038 38.5622L257.864 39.4258ZM249.216 34.8799L249.902 34.327L249.216 34.8799ZM250.925 5.21191L251.514 5.86694L251.517 5.86441L250.925 5.21191ZM275.979 4.7334L275.424 5.41758L275.427 5.42021L275.979 4.7334ZM280.32 24.25V23.3691H265.828V24.25V25.1309H280.32V24.25ZM265.828 24.25H266.709V15.2949H265.828H264.947V24.25H265.828ZM265.828 15.2949H266.709C266.709 14.3421 266.502 13.4629 265.934 12.8166C265.347 12.1485 264.514 11.8847 263.606 11.8847V12.7656V13.6465C264.179 13.6465 264.457 13.8043 264.61 13.9793C264.783 14.1761 264.947 14.5616 264.947 15.2949H265.828ZM263.606 12.7656V11.8847C262.733 11.8847 261.924 12.1234 261.341 12.7429C260.769 13.3503 260.551 14.1813 260.538 15.0769L261.418 15.0898L262.299 15.1028C262.309 14.4489 262.466 14.1178 262.624 13.9504C262.77 13.7952 263.043 13.6465 263.606 13.6465V12.7656ZM261.418 15.0898H260.538V23.3955H261.418H262.299V15.0898H261.418ZM261.418 23.3955H260.538C260.538 24.3235 260.772 25.1702 261.278 25.8921C261.781 26.6091 262.509 27.1423 263.397 27.5212L263.743 26.7109L264.088 25.9007C263.427 25.6188 262.993 25.269 262.721 24.8808C262.452 24.4976 262.299 24.017 262.299 23.3955H261.418ZM263.743 26.7109L263.532 27.5663L270.334 29.2411L270.544 28.3857L270.755 27.5304L263.953 25.8556L263.743 26.7109ZM270.544 28.3857L270.318 29.237C273.718 30.1421 276.187 31.5421 277.815 33.3792L278.474 32.7949L279.133 32.2106C277.207 30.0373 274.39 28.4979 270.771 27.5345L270.544 28.3857ZM278.474 32.7949L277.819 33.3834C279.415 35.1621 280.293 37.9414 280.293 41.8867H281.174H282.055C282.055 37.7201 281.133 34.4381 279.13 32.2065L278.474 32.7949ZM281.174 41.8867H280.293V52.9609H281.174H282.055V41.8867H281.174ZM281.174 52.9609H280.293C280.293 57.7613 278.844 61.3889 276.033 63.9671L276.628 64.6162L277.224 65.2654C280.474 62.2836 282.055 58.141 282.055 52.9609H281.174ZM276.628 64.6162L276.033 63.9671C273.212 66.5544 269.202 67.9052 263.879 67.9052V68.7861V69.667C269.494 69.667 273.983 68.2379 277.224 65.2654L276.628 64.6162ZM263.879 68.7861V67.9052C258.374 67.9052 254.367 66.7721 251.716 64.6467L251.165 65.334L250.614 66.0213C253.704 68.4988 258.173 69.667 263.879 69.667V68.7861ZM251.165 65.334L251.719 64.6493C249.092 62.523 247.739 59.4586 247.739 55.3193H246.858H245.977C245.977 59.8845 247.495 63.4966 250.61 66.0187L251.165 65.334ZM246.858 55.3193H247.739V43.5615H246.858H245.977V55.3193H246.858ZM246.858 43.5615V44.4424H261.555V43.5615V42.6806H246.858V43.5615ZM261.555 43.5615H260.674V54.4307H261.555H262.436V43.5615H261.555ZM261.555 54.4307H260.674C260.674 55.3383 260.911 56.1628 261.452 56.8306L262.136 56.2764L262.821 55.7221C262.587 55.4329 262.436 55.027 262.436 54.4307H261.555ZM262.136 56.2764L261.467 56.8496C262.077 57.5614 262.925 57.875 263.879 57.875V56.9941V56.1132C263.33 56.1132 263.015 55.9484 262.805 55.7031L262.136 56.2764ZM263.879 56.9941V57.875C264.753 57.875 265.53 57.579 266.125 56.9506L265.486 56.3447L264.846 55.7389C264.621 55.9763 264.327 56.1132 263.879 56.1132V56.9941ZM265.486 56.3447L266.109 56.9676C266.733 56.3439 267.016 55.5368 267.016 54.6357H266.135H265.254C265.254 55.1474 265.105 55.4797 264.863 55.7218L265.486 56.3447ZM266.135 54.6357H267.016V44.2793H266.135H265.254V54.6357H266.135ZM266.135 44.2793H267.016C267.016 43.2578 266.722 42.3397 266.1 41.5778C265.489 40.8281 264.613 40.2925 263.552 39.9261L263.264 40.7588L262.977 41.5915C263.83 41.8859 264.389 42.2674 264.735 42.6913C265.07 43.1028 265.254 43.6146 265.254 44.2793H266.135ZM263.264 40.7588L263.475 39.9036L258.075 38.5706L257.864 39.4258L257.653 40.281L263.053 41.614L263.264 40.7588ZM257.864 39.4258L258.038 38.5622C254.193 37.7888 251.529 36.3453 249.902 34.327L249.216 34.8799L248.531 35.4327C250.504 37.8806 253.605 39.4677 257.69 40.2894L257.864 39.4258ZM249.216 34.8799L249.902 34.327C248.277 32.3114 247.397 29.2825 247.397 25.1045H246.516H245.635C245.635 29.4941 246.555 32.9822 248.531 35.4327L249.216 34.8799ZM246.516 25.1045H247.397V16.0469H246.516H245.635V25.1045H246.516ZM246.516 16.0469H247.397C247.397 11.673 248.791 8.31599 251.514 5.86693L250.925 5.21191L250.336 4.5569C247.181 7.39429 245.635 11.2606 245.635 16.0469H246.516ZM250.925 5.21191L251.517 5.86441C254.238 3.39632 258.266 2.09379 263.743 2.09379V1.21289V0.331993C258.008 0.331993 253.491 1.69548 250.334 4.55942L250.925 5.21191ZM263.743 1.21289V2.09379C268.886 2.09379 272.741 3.24129 275.424 5.41757L275.979 4.7334L276.534 4.04923C273.43 1.53149 269.127 0.331993 263.743 0.331993V1.21289ZM275.979 4.7334L275.427 5.42021C278.087 7.55617 279.439 10.5248 279.439 14.4404H280.32H281.201C281.201 10.0618 279.659 6.55907 276.531 4.04659L275.979 4.7334ZM280.32 14.4404H279.439V24.25H280.32H281.201V14.4404H280.32ZM307.832 1.62305V0.742149H307.07L306.96 1.49549L307.832 1.62305ZM317.334 1.62305H318.215V0.742149H317.334V1.62305ZM317.334 68V68.8809H318.215V68H317.334ZM303.081 68H302.2V68.8809H303.081V68ZM303.081 20.5244H303.962V19.6435H303.081V20.5244ZM297.885 20.5244H297.005V21.4053H297.885V20.5244ZM297.885 10.8174L297.816 9.93922L297.005 10.0033V10.8174H297.885ZM305.132 8.11719L304.48 7.52413L304.475 7.52952L305.132 8.11719ZM307.832 1.62305V2.50394H317.334V1.62305V0.742149H307.832V1.62305ZM317.334 1.62305H316.453V68H317.334H318.215V1.62305H317.334ZM317.334 68V67.1191H303.081V68V68.8809H317.334V68ZM303.081 68H303.962V20.5244H303.081H302.2V68H303.081ZM303.081 20.5244V19.6435H297.885V20.5244V21.4053H303.081V20.5244ZM297.885 20.5244H298.766V10.8174H297.885H297.005V20.5244H297.885ZM297.885 10.8174L297.955 11.6955C301.498 11.4158 304.194 10.4846 305.788 8.70485L305.132 8.11719L304.475 7.52952C303.335 8.80319 301.2 9.67205 297.816 9.93922L297.885 10.8174ZM305.132 8.11719L305.783 8.71023C307.328 7.01371 308.277 4.66424 308.703 1.7506L307.832 1.62305L306.96 1.49549C306.566 4.18732 305.716 6.16729 304.48 7.52415L305.132 8.11719ZM350.76 5.51953L350.127 6.13229L350.76 5.51953ZM350.76 64.377L350.127 63.7642L350.76 64.377ZM326.458 64.4111L325.825 65.0239L325.828 65.0264L326.458 64.4111ZM338.592 12.082V12.9629H338.599L338.607 12.9628L338.592 12.082ZM326.458 5.51953L327.091 6.13229C329.656 3.48341 333.44 2.09379 338.592 2.09379V1.21289V0.331993C333.126 0.331993 328.821 1.81347 325.825 4.90677L326.458 5.51953ZM338.592 1.21289V2.09379C343.768 2.09379 347.563 3.48411 350.127 6.13229L350.76 5.51953L351.393 4.90677C348.397 1.81277 344.08 0.331993 338.592 0.331993V1.21289ZM350.76 5.51953L350.127 6.13229C352.708 8.79771 354.049 12.5307 354.049 17.4482H354.93H355.811C355.811 12.203 354.372 7.98354 351.393 4.90677L350.76 5.51953ZM354.93 17.4482H354.049V52.3799H354.93H355.811V17.4482H354.93ZM354.93 52.3799H354.049C354.049 57.3455 352.707 61.1002 350.127 63.7642L350.76 64.377L351.393 64.9897C354.373 61.9115 355.811 57.6681 355.811 52.3799H354.93ZM350.76 64.377L350.127 63.7642C347.564 66.411 343.748 67.8027 338.524 67.8027V68.6836V69.5645C344.055 69.5645 348.396 68.0851 351.393 64.9897L350.76 64.377ZM338.524 68.6836V67.8027C333.418 67.8027 329.655 66.4247 327.089 63.7959L326.458 64.4111L325.828 65.0264C328.822 68.0941 333.102 69.5645 338.524 69.5645V68.6836ZM326.458 64.4111L327.091 63.7984C324.512 61.1351 323.169 57.3696 323.169 52.3799H322.288H321.408C321.408 57.6897 322.844 61.945 325.825 65.0239L326.458 64.4111ZM322.288 52.3799H323.169V17.4482H322.288H321.408V52.3799H322.288ZM322.288 17.4482H323.169C323.169 12.5307 324.51 8.79771 327.091 6.13229L326.458 5.51953L325.825 4.90677C322.846 7.98354 321.408 12.203 321.408 17.4482H322.288ZM340.643 55.1826H341.524V14.7139H340.643H339.762V55.1826H340.643ZM340.643 14.7139H341.524C341.524 13.7382 341.341 12.8432 340.825 12.1815C340.274 11.4742 339.467 11.1864 338.577 11.2013L338.592 12.082L338.607 12.9628C339.084 12.9548 339.303 13.0943 339.435 13.2643C339.603 13.4799 339.762 13.9122 339.762 14.7139H340.643ZM338.592 12.082V11.2011C337.723 11.2011 336.946 11.5087 336.423 12.2159C335.936 12.8735 335.763 13.7537 335.763 14.7139H336.644H337.525C337.525 13.9195 337.676 13.4838 337.839 13.2641C337.965 13.094 338.162 12.9629 338.592 12.9629V12.082ZM336.644 14.7139H335.763V55.1826H336.644H337.525V14.7139H336.644ZM336.644 55.1826H335.763C335.763 56.1525 335.935 57.0393 336.42 57.7019C336.941 58.4159 337.719 58.7295 338.592 58.7295V57.8486V56.9677C338.166 56.9677 337.97 56.837 337.842 56.6624C337.677 56.4363 337.525 55.9901 337.525 55.1826H336.644ZM338.592 57.8486V58.7295C339.482 58.7295 340.283 58.4283 340.828 57.7192C341.34 57.0539 341.524 56.1596 341.524 55.1826H340.643H339.762C339.762 55.983 339.604 56.4216 339.432 56.645C339.294 56.8246 339.069 56.9677 338.592 56.9677V57.8486ZM388.185 5.51953L387.553 6.13229L388.185 5.51953ZM388.185 64.377L387.553 63.7642L388.185 64.377ZM363.884 64.4111L363.251 65.0239L363.253 65.0264L363.884 64.4111ZM376.017 12.082V12.9629H376.025L376.032 12.9628L376.017 12.082ZM363.884 5.51953L364.517 6.13229C367.081 3.48341 370.865 2.09379 376.017 2.09379V1.21289V0.331993C370.551 0.331993 366.246 1.81347 363.251 4.90677L363.884 5.51953ZM376.017 1.21289V2.09379C381.194 2.09379 384.988 3.48411 387.553 6.13229L388.185 5.51953L388.818 4.90677C385.823 1.81277 381.505 0.331993 376.017 0.331993V1.21289ZM388.185 5.51953L387.553 6.13229C390.133 8.79771 391.474 12.5307 391.474 17.4482H392.355H393.236C393.236 12.203 391.797 7.98354 388.818 4.90677L388.185 5.51953ZM392.355 17.4482H391.474V52.3799H392.355H393.236V17.4482H392.355ZM392.355 52.3799H391.474C391.474 57.3455 390.132 61.1002 387.553 63.7642L388.185 64.377L388.818 64.9897C391.799 61.9115 393.236 57.6681 393.236 52.3799H392.355ZM388.185 64.377L387.553 63.7642C384.99 66.411 381.173 67.8027 375.949 67.8027V68.6836V69.5645C381.48 69.5645 385.821 68.0851 388.818 64.9897L388.185 64.377ZM375.949 68.6836V67.8027C370.843 67.8027 367.08 66.4247 364.514 63.7959L363.884 64.4111L363.253 65.0264C366.247 68.0941 370.528 69.5645 375.949 69.5645V68.6836ZM363.884 64.4111L364.517 63.7984C361.938 61.1351 360.595 57.3696 360.595 52.3799H359.714H358.833C358.833 57.6897 360.27 61.945 363.251 65.0239L363.884 64.4111ZM359.714 52.3799H360.595V17.4482H359.714H358.833V52.3799H359.714ZM359.714 17.4482H360.595C360.595 12.5307 361.936 8.79771 364.517 6.13229L363.884 5.51953L363.251 4.90677C360.272 7.98354 358.833 12.203 358.833 17.4482H359.714ZM378.068 55.1826H378.949V14.7139H378.068H377.187V55.1826H378.068ZM378.068 14.7139H378.949C378.949 13.7382 378.766 12.8432 378.25 12.1815C377.699 11.4742 376.892 11.1864 376.003 11.2013L376.017 12.082L376.032 12.9628C376.51 12.9548 376.728 13.0943 376.861 13.2643C377.029 13.4799 377.187 13.9122 377.187 14.7139H378.068ZM376.017 12.082V11.2011C375.149 11.2011 374.372 11.5087 373.848 12.2159C373.361 12.8735 373.188 13.7537 373.188 14.7139H374.069H374.95C374.95 13.9195 375.102 13.4838 375.264 13.2641C375.39 13.094 375.587 12.9629 376.017 12.9629V12.082ZM374.069 14.7139H373.188V55.1826H374.069H374.95V14.7139H374.069ZM374.069 55.1826H373.188C373.188 56.1525 373.361 57.0393 373.845 57.7019C374.367 58.4159 375.144 58.7295 376.017 58.7295V57.8486V56.9677C375.592 56.9677 375.395 56.837 375.268 56.6624C375.102 56.4363 374.95 55.9901 374.95 55.1826H374.069ZM376.017 57.8486V58.7295C376.908 58.7295 377.708 58.4283 378.254 57.7192C378.766 57.0539 378.949 56.1596 378.949 55.1826H378.068H377.187C377.187 55.983 377.029 56.4216 376.857 56.645C376.719 56.8246 376.494 56.9677 376.017 56.9677V57.8486ZM400.215 3.63965L399.588 3.02107L399.588 3.02113L400.215 3.63965ZM413.887 3.63965L413.251 4.24935L413.256 4.25383L413.887 3.63965ZM413.887 21.5156L413.256 20.9014L413.256 20.9016L413.887 21.5156ZM400.215 21.4814L399.584 22.0956L399.588 22.1L400.215 21.4814ZM426.124 1.48633V0.605431H425.526L425.305 1.16077L426.124 1.48633ZM439.419 1.48633L440.239 1.80898L440.713 0.605431H439.419V1.48633ZM413.238 68V68.8809H413.838L414.057 68.3226L413.238 68ZM399.668 68L398.85 67.6744L398.37 68.8809H399.668V68ZM406.299 16.3887L405.676 17.0116L405.707 17.0426L405.741 17.0704L406.299 16.3887ZM439.146 48.1074L438.519 48.726L438.523 48.7303L439.146 48.1074ZM439.146 66.2227L439.769 66.8456L439.773 66.8412L439.146 66.2227ZM425.44 66.2227L424.813 66.8413L424.821 66.8498L425.44 66.2227ZM432.276 52.9609V53.8418H432.29L432.304 53.8414L432.276 52.9609ZM400.215 3.63965L400.842 4.25823C402.277 2.80347 404.317 2.02543 407.085 2.02543V1.14453V0.263634C403.975 0.263634 401.435 1.14901 399.588 3.02107L400.215 3.63965ZM407.085 1.14453V2.02543C409.855 2.02543 411.865 2.80383 413.251 4.24934L413.887 3.63965L414.523 3.02996C412.719 1.14864 410.195 0.263634 407.085 0.263634V1.14453ZM413.887 3.63965L413.256 4.25383C414.683 5.72107 415.433 7.70569 415.433 10.3047H416.314H417.195C417.195 7.34379 416.327 4.88506 414.519 3.02547L413.887 3.63965ZM416.314 10.3047H415.433V14.8164H416.314H417.195V10.3047H416.314ZM416.314 14.8164H415.433C415.433 17.4405 414.681 19.4356 413.256 20.9014L413.887 21.5156L414.519 22.1298C416.329 20.2689 417.195 17.7978 417.195 14.8164H416.314ZM413.887 21.5156L413.256 20.9016C411.87 22.3265 409.858 23.0957 407.085 23.0957V23.9766V24.8575C410.192 24.8575 412.714 23.986 414.519 22.1297L413.887 21.5156ZM407.085 23.9766V23.0957C404.317 23.0957 402.277 22.3176 400.842 20.8629L400.215 21.4814L399.588 22.1C401.435 23.9721 403.975 24.8575 407.085 24.8575V23.9766ZM400.215 21.4814L400.847 20.8673C399.42 19.4 398.669 17.4154 398.669 14.8164H397.789H396.908C396.908 17.7773 397.775 20.236 399.584 22.0956L400.215 21.4814ZM397.789 14.8164H398.669V10.3047H397.789H396.908V14.8164H397.789ZM397.789 10.3047H398.669C398.669 7.68018 399.421 5.69956 400.843 4.25817L400.215 3.63965L399.588 3.02113C397.774 4.86099 396.908 7.32373 396.908 10.3047H397.789ZM426.124 1.48633V2.36723H439.419V1.48633V0.605431H426.124V1.48633ZM439.419 1.48633L438.6 1.16368L412.418 67.6774L413.238 68L414.057 68.3226L440.239 1.80898L439.419 1.48633ZM413.238 68V67.1191H399.668V68V68.8809H413.238V68ZM399.668 68L400.487 68.3256L426.942 1.81189L426.124 1.48633L425.305 1.16077L398.85 67.6744L399.668 68ZM408.145 15.5H409.026V9.62109H408.145H407.264V15.5H408.145ZM408.145 9.62109H409.026C409.026 9.12257 408.91 8.58477 408.522 8.17202C408.125 7.74891 407.589 7.61227 407.085 7.61227V8.49316V9.37406C407.186 9.37406 407.237 9.38776 407.254 9.39384C407.267 9.39821 407.254 9.39553 407.238 9.37828C407.204 9.3415 407.264 9.36766 407.264 9.62109H408.145ZM407.085 8.49316V7.61227C406.574 7.61227 406.028 7.7408 405.617 8.15226C405.205 8.56371 405.077 9.10933 405.077 9.62109H405.958H406.838C406.838 9.3809 406.898 9.36256 406.862 9.39803C406.827 9.43351 406.845 9.37406 407.085 9.37406V8.49316ZM405.958 9.62109H405.077V15.5H405.958H406.838V9.62109H405.958ZM405.958 15.5H405.077C405.077 16.0648 405.261 16.5963 405.676 17.0116L406.299 16.3887L406.922 15.7658C406.882 15.7254 406.838 15.6644 406.838 15.5H405.958ZM406.299 16.3887L405.741 17.0704C406.119 17.3795 406.573 17.5772 407.085 17.5772V16.6963V15.8154C407.051 15.8154 406.981 15.808 406.857 15.7069L406.299 16.3887ZM407.085 16.6963V17.5772C407.604 17.5772 408.146 17.4259 408.54 16.9813C408.915 16.5571 409.026 16.01 409.026 15.5H408.145H407.264C407.264 15.7875 407.198 15.8386 407.221 15.8132C407.233 15.7988 407.246 15.7945 407.239 15.7971C407.227 15.8016 407.181 15.8154 407.085 15.8154V16.6963ZM432.276 45.6123V46.4932C435.044 46.4932 437.084 47.2712 438.519 48.726L439.146 48.1074L439.773 47.4888C437.927 45.6168 435.387 44.7314 432.276 44.7314V45.6123ZM439.146 48.1074L438.523 48.7303C439.965 50.1723 440.726 52.1515 440.726 54.7725H441.607H442.488C442.488 51.788 441.608 49.3238 439.769 47.4845L439.146 48.1074ZM441.607 54.7725H440.726V59.5234H441.607H442.488V54.7725H441.607ZM441.607 59.5234H440.726C440.726 62.144 439.965 64.1376 438.519 65.6041L439.146 66.2227L439.773 66.8412C441.608 64.9809 442.488 62.5083 442.488 59.5234H441.607ZM439.146 66.2227L438.523 65.5998C437.089 67.034 435.047 67.8027 432.276 67.8027V68.6836V69.5645C435.383 69.5645 437.922 68.6926 439.769 66.8455L439.146 66.2227ZM432.276 68.6836V67.8027C429.555 67.8027 427.52 67.0367 426.059 65.5955L425.44 66.2227L424.821 66.8498C426.687 68.6899 429.209 69.5645 432.276 69.5645V68.6836ZM425.44 66.2227L426.067 65.6041C424.621 64.1376 423.86 62.144 423.86 59.5234H422.979H422.098C422.098 62.5083 422.978 64.9809 424.813 66.8412L425.44 66.2227ZM422.979 59.5234H423.86V54.7725H422.979H422.098V59.5234H422.979ZM422.979 54.7725H423.86C423.86 52.1515 424.621 50.1723 426.063 48.7303L425.44 48.1074L424.817 47.4845C422.978 49.3238 422.098 51.788 422.098 54.7725H422.979ZM425.44 48.1074L426.063 48.7303C427.525 47.2685 429.559 46.4932 432.276 46.4932V45.6123V44.7314C429.205 44.7314 426.682 45.6195 424.817 47.4845L425.44 48.1074ZM433.335 60.2412H434.216V54.0547H433.335H432.455V60.2412H433.335ZM433.335 54.0547H434.216C434.216 53.5588 434.101 53.0154 433.703 52.6044C433.294 52.1824 432.748 52.0643 432.247 52.0805L432.276 52.9609L432.304 53.8414C432.406 53.8381 432.455 53.8503 432.469 53.8548C432.478 53.8576 432.459 53.8525 432.438 53.8302C432.393 53.7838 432.455 53.7986 432.455 54.0547H433.335ZM432.276 52.9609V52.08C431.783 52.08 431.256 52.2141 430.864 52.6319C430.483 53.039 430.37 53.568 430.37 54.0547H431.25H432.131C432.131 53.8122 432.189 53.7944 432.149 53.8369C432.131 53.8571 432.115 53.8621 432.122 53.8593C432.135 53.8548 432.181 53.8418 432.276 53.8418V52.9609ZM431.25 54.0547H430.37V60.2412H431.25H432.131V54.0547H431.25ZM431.25 60.2412H430.37C430.37 60.7454 430.475 61.2879 430.838 61.7117C431.224 62.1615 431.76 62.3184 432.276 62.3184V61.4375V60.5566C432.189 60.5566 432.152 60.5437 432.147 60.5417C432.145 60.541 432.149 60.5424 432.156 60.5476C432.164 60.5529 432.171 60.5593 432.176 60.5651C432.197 60.5902 432.131 60.5346 432.131 60.2412H431.25ZM432.276 61.4375V62.3184C432.794 62.3184 433.336 62.1671 433.73 61.7225C434.106 61.2983 434.216 60.7512 434.216 60.2412H433.335H432.455C432.455 60.5287 432.389 60.5798 432.411 60.5544C432.424 60.54 432.436 60.5357 432.429 60.5383C432.417 60.5428 432.372 60.5566 432.276 60.5566V61.4375Z" fill="black" mask="url(#path-1-outside-1_1_414)"/>
<mask id="path-3-outside-2_1_414" maskUnits="userSpaceOnUse" x="0.525696" y="88" width="408" height="72" fill="black">
<rect fill="white" x="0.525696" y="88" width="408" height="72"/>
<path d="M20.4954 90.2129C26.3288 90.2129 30.6924 91.7054 33.5862 94.6904C36.4801 97.6755 37.9271 102.301 37.9271 108.567V139.295C37.9271 145.584 36.4801 150.221 33.5862 153.206C30.6924 156.191 26.3288 157.684 20.4954 157.684C8.96547 157.684 3.2005 151.554 3.2005 139.295V108.567C3.2005 96.3311 8.96547 90.2129 20.4954 90.2129ZM22.888 143.123V104.773C22.888 102.905 22.1133 101.971 20.5638 101.971C19.903 101.971 19.3675 102.221 18.9573 102.723C18.5472 103.201 18.3421 103.885 18.3421 104.773V143.123C18.3421 144.012 18.5472 144.707 18.9573 145.208C19.3675 145.687 19.903 145.926 20.5638 145.926C22.1133 145.926 22.888 144.992 22.888 143.123ZM71.1128 103.167L59.355 103.235V117.386L70.2583 117.317V129.075L59.355 129.144V157H44.6577V90.8623H71.1128V103.167ZM120.736 90.8623V103.167H112.533V157H97.8359V103.235H89.4277V90.8623H120.736ZM145.172 90.8623H159.869V157H145.172V129.417H140.763V157H126.066V90.8623H140.763V117.044H145.172V90.8623ZM181.844 144.627H194.764V157H167.147V90.8623H194.559V103.235H181.844V117.317H193.875V129.007H181.844V144.627ZM249.514 113.25H235.022V104.295C235.022 102.609 234.282 101.766 232.801 101.766C231.365 101.766 230.636 102.54 230.613 104.09V112.396C230.613 113.945 231.388 115.05 232.937 115.711L239.739 117.386C243.248 118.32 245.891 119.79 247.669 121.795C249.469 123.8 250.369 126.831 250.369 130.887V141.961C250.369 146.951 248.854 150.836 245.823 153.616C242.792 156.396 238.543 157.786 233.074 157.786C227.468 157.786 223.23 156.635 220.359 154.334C217.488 152.01 216.052 148.672 216.052 144.319V132.562H230.75V143.431C230.75 144.183 230.943 144.798 231.331 145.276C231.741 145.755 232.322 145.994 233.074 145.994C233.735 145.994 234.27 145.778 234.68 145.345C235.113 144.912 235.33 144.342 235.33 143.636V133.279C235.33 131.593 234.373 130.42 232.459 129.759L227.058 128.426C223.093 127.628 220.211 126.113 218.411 123.88C216.611 121.647 215.711 118.388 215.711 114.104V105.047C215.711 100.467 217.18 96.8551 220.12 94.2119C223.059 91.5459 227.332 90.2129 232.937 90.2129C238.201 90.2129 242.28 91.3864 245.174 93.7334C248.067 96.0576 249.514 99.2933 249.514 103.44V113.25ZM275.933 90.8623H290.63V157H275.933V129.417H271.523V157H256.826V90.8623H271.523V117.044H275.933V90.8623ZM314.621 90.2129C320.455 90.2129 324.818 91.7054 327.712 94.6904C330.606 97.6755 332.053 102.301 332.053 108.567V139.295C332.053 145.584 330.606 150.221 327.712 153.206C324.818 156.191 320.455 157.684 314.621 157.684C303.091 157.684 297.326 151.554 297.326 139.295V108.567C297.326 96.3311 303.091 90.2129 314.621 90.2129ZM317.014 143.123V104.773C317.014 102.905 316.239 101.971 314.69 101.971C314.029 101.971 313.493 102.221 313.083 102.723C312.673 103.201 312.468 103.885 312.468 104.773V143.123C312.468 144.012 312.673 144.707 313.083 145.208C313.493 145.687 314.029 145.926 314.69 145.926C316.239 145.926 317.014 144.992 317.014 143.123ZM367.563 90.8623V103.167H359.36V157H344.662V103.235H336.254V90.8623H367.563ZM405.636 113.25H391.144V104.295C391.144 102.609 390.403 101.766 388.922 101.766C387.487 101.766 386.758 102.54 386.735 104.09V112.396C386.735 113.945 387.51 115.05 389.059 115.711L395.861 117.386C399.37 118.32 402.013 119.79 403.791 121.795C405.591 123.8 406.491 126.831 406.491 130.887V141.961C406.491 146.951 404.975 150.836 401.945 153.616C398.914 156.396 394.665 157.786 389.196 157.786C383.59 157.786 379.352 156.635 376.481 154.334C373.61 152.01 372.174 148.672 372.174 144.319V132.562H386.872V143.431C386.872 144.183 387.065 144.798 387.453 145.276C387.863 145.755 388.444 145.994 389.196 145.994C389.857 145.994 390.392 145.778 390.802 145.345C391.235 144.912 391.452 144.342 391.452 143.636V133.279C391.452 131.593 390.495 130.42 388.581 129.759L383.18 128.426C379.215 127.628 376.333 126.113 374.533 123.88C372.733 121.647 371.833 118.388 371.833 114.104V105.047C371.833 100.467 373.302 96.8551 376.242 94.2119C379.181 91.5459 383.454 90.2129 389.059 90.2129C394.323 90.2129 398.402 91.3864 401.295 93.7334C404.189 96.0576 405.636 99.2933 405.636 103.44V113.25Z"/>
</mask>
<path d="M33.5862 94.6904L34.8512 93.4641L33.5862 94.6904ZM18.9573 102.723L20.295 103.869L20.3081 103.854L20.3209 103.838L18.9573 102.723ZM18.9573 145.208L17.5938 146.324L17.6066 146.339L17.6197 146.355L18.9573 145.208ZM20.4954 90.2129V91.9747C26.0478 91.9747 29.8745 93.3929 32.3213 95.9167L33.5862 94.6904L34.8512 93.4641C31.5102 90.018 26.6097 88.4511 20.4954 88.4511V90.2129ZM33.5862 94.6904L32.3213 95.9167C34.767 98.4394 36.1653 102.531 36.1653 108.567H37.9271H39.6889C39.6889 102.071 38.1933 96.9115 34.8512 93.4641L33.5862 94.6904ZM37.9271 108.567H36.1653V139.295H37.9271H39.6889V108.567H37.9271ZM37.9271 139.295H36.1653C36.1653 145.356 34.766 149.458 32.3213 151.98L33.5862 153.206L34.8512 154.432C38.1943 150.984 39.6889 145.812 39.6889 139.295H37.9271ZM33.5862 153.206L32.3213 151.98C29.8745 154.504 26.0478 155.922 20.4954 155.922V157.684V159.445C26.6097 159.445 31.5102 157.879 34.8512 154.432L33.5862 153.206ZM20.4954 157.684V155.922C15.0306 155.922 11.2482 154.474 8.80759 151.879C6.34787 149.264 4.9623 145.179 4.9623 139.295H3.2005H1.43871C1.43871 145.67 2.93562 150.779 6.24087 154.293C9.56522 157.828 14.4303 159.445 20.4954 159.445V157.684ZM3.2005 139.295H4.9623V108.567H3.2005H1.43871V139.295H3.2005ZM3.2005 108.567H4.9623C4.9623 102.696 6.3475 98.6194 8.80647 96.0097C11.2469 93.4198 15.0297 91.9747 20.4954 91.9747V90.2129V88.4511C14.4312 88.4511 9.56653 90.0651 6.24199 93.5933C2.93599 97.1018 1.43871 102.203 1.43871 108.567H3.2005ZM22.888 143.123H24.6498V104.773H22.888H21.1262V143.123H22.888ZM22.888 104.773H24.6498C24.6498 103.64 24.4215 102.461 23.6631 101.547C22.8523 100.569 21.7059 100.209 20.5638 100.209V101.971V103.732C20.7777 103.732 20.885 103.765 20.9236 103.781C20.9513 103.792 20.9502 103.795 20.9508 103.796C20.9671 103.816 21.1262 104.039 21.1262 104.773H22.888ZM20.5638 101.971V100.209C19.3869 100.209 18.3463 100.687 17.5938 101.607L18.9573 102.723L20.3209 103.838C20.3751 103.772 20.4067 103.757 20.4135 103.754C20.4212 103.751 20.4609 103.732 20.5638 103.732V101.971ZM18.9573 102.723L17.6197 101.576C16.8421 102.483 16.5803 103.635 16.5803 104.773H18.3421H20.1039C20.1039 104.135 20.2522 103.919 20.295 103.869L18.9573 102.723ZM18.3421 104.773H16.5803V143.123H18.3421H20.1039V104.773H18.3421ZM18.3421 143.123H16.5803C16.5803 144.268 16.8447 145.408 17.5938 146.324L18.9573 145.208L20.3209 144.092C20.2496 144.005 20.1039 143.755 20.1039 143.123H18.3421ZM18.9573 145.208L17.6197 146.355C18.3827 147.245 19.4171 147.688 20.5638 147.688V145.926V144.164C20.4496 144.164 20.3999 144.144 20.3853 144.138C20.3729 144.132 20.3433 144.118 20.295 144.061L18.9573 145.208ZM20.5638 145.926V147.688C21.7059 147.688 22.8523 147.327 23.6631 146.35C24.4215 145.435 24.6498 144.257 24.6498 143.123H22.888H21.1262C21.1262 143.858 20.9671 144.081 20.9508 144.1C20.9502 144.101 20.9513 144.105 20.9236 144.116C20.885 144.131 20.7777 144.164 20.5638 144.164V145.926ZM71.1128 103.167L71.123 104.929L72.8746 104.919V103.167H71.1128ZM59.355 103.235L59.3447 101.474L57.5932 101.484V103.235H59.355ZM59.355 117.386H57.5932V119.159L59.366 119.148L59.355 117.386ZM70.2583 117.317H72.0201V115.545L70.2473 115.556L70.2583 117.317ZM70.2583 129.075L70.2694 130.837L72.0201 130.826V129.075H70.2583ZM59.355 129.144L59.3439 127.382L57.5932 127.393V129.144H59.355ZM59.355 157V158.762H61.1168V157H59.355ZM44.6577 157H42.8959V158.762H44.6577V157ZM44.6577 90.8623V89.1005H42.8959V90.8623H44.6577ZM71.1128 90.8623H72.8746V89.1005H71.1128V90.8623ZM71.1128 103.167L71.1026 101.405L59.3447 101.474L59.355 103.235L59.3652 104.997L71.123 104.929L71.1128 103.167ZM59.355 103.235H57.5932V117.386H59.355H61.1168V103.235H59.355ZM59.355 117.386L59.366 119.148L70.2694 119.079L70.2583 117.317L70.2473 115.556L59.3439 115.624L59.355 117.386ZM70.2583 117.317H68.4965V129.075H70.2583H72.0201V117.317H70.2583ZM70.2583 129.075L70.2473 127.313L59.3439 127.382L59.355 129.144L59.366 130.905L70.2694 130.837L70.2583 129.075ZM59.355 129.144H57.5932V157H59.355H61.1168V129.144H59.355ZM59.355 157V155.238H44.6577V157V158.762H59.355V157ZM44.6577 157H46.4195V90.8623H44.6577H42.8959V157H44.6577ZM44.6577 90.8623V92.6241H71.1128V90.8623V89.1005H44.6577V90.8623ZM71.1128 90.8623H69.351V103.167H71.1128H72.8746V90.8623H71.1128ZM120.736 90.8623H122.498V89.1005H120.736V90.8623ZM120.736 103.167V104.929H122.498V103.167H120.736ZM112.533 103.167V101.405H110.771V103.167H112.533ZM112.533 157V158.762H114.295V157H112.533ZM97.8359 157H96.0741V158.762H97.8359V157ZM97.8359 103.235H99.5976V101.474H97.8359V103.235ZM89.4277 103.235H87.6659V104.997H89.4277V103.235ZM89.4277 90.8623V89.1005H87.6659V90.8623H89.4277ZM120.736 90.8623H118.974V103.167H120.736H122.498V90.8623H120.736ZM120.736 103.167V101.405H112.533V103.167V104.929H120.736V103.167ZM112.533 103.167H110.771V157H112.533H114.295V103.167H112.533ZM112.533 157V155.238H97.8359V157V158.762H112.533V157ZM97.8359 157H99.5976V103.235H97.8359H96.0741V157H97.8359ZM97.8359 103.235V101.474H89.4277V103.235V104.997H97.8359V103.235ZM89.4277 103.235H91.1894V90.8623H89.4277H87.6659V103.235H89.4277ZM89.4277 90.8623V92.6241H120.736V90.8623V89.1005H89.4277V90.8623ZM145.172 90.8623V89.1005H143.41V90.8623H145.172ZM159.869 90.8623H161.631V89.1005H159.869V90.8623ZM159.869 157V158.762H161.631V157H159.869ZM145.172 157H143.41V158.762H145.172V157ZM145.172 129.417H146.934V127.655H145.172V129.417ZM140.763 129.417V127.655H139.001V129.417H140.763ZM140.763 157V158.762H142.525V157H140.763ZM126.066 157H124.304V158.762H126.066V157ZM126.066 90.8623V89.1005H124.304V90.8623H126.066ZM140.763 90.8623H142.525V89.1005H140.763V90.8623ZM140.763 117.044H139.001V118.806H140.763V117.044ZM145.172 117.044V118.806H146.934V117.044H145.172ZM145.172 90.8623V92.6241H159.869V90.8623V89.1005H145.172V90.8623ZM159.869 90.8623H158.107V157H159.869H161.631V90.8623H159.869ZM159.869 157V155.238H145.172V157V158.762H159.869V157ZM145.172 157H146.934V129.417H145.172H143.41V157H145.172ZM145.172 129.417V127.655H140.763V129.417V131.179H145.172V129.417ZM140.763 129.417H139.001V157H140.763H142.525V129.417H140.763ZM140.763 157V155.238H126.066V157V158.762H140.763V157ZM126.066 157H127.827V90.8623H126.066H124.304V157H126.066ZM126.066 90.8623V92.6241H140.763V90.8623V89.1005H126.066V90.8623ZM140.763 90.8623H139.001V117.044H140.763H142.525V90.8623H140.763ZM140.763 117.044V118.806H145.172V117.044V115.282H140.763V117.044ZM145.172 117.044H146.934V90.8623H145.172H143.41V117.044H145.172ZM181.844 144.627H180.082V146.389H181.844V144.627ZM194.764 144.627H196.526V142.865H194.764V144.627ZM194.764 157V158.762H196.526V157H194.764ZM167.147 157H165.385V158.762H167.147V157ZM167.147 90.8623V89.1005H165.385V90.8623H167.147ZM194.559 90.8623H196.321V89.1005H194.559V90.8623ZM194.559 103.235V104.997H196.321V103.235H194.559ZM181.844 103.235V101.474H180.082V103.235H181.844ZM181.844 117.317H180.082V119.079H181.844V117.317ZM193.875 117.317H195.637V115.556H193.875V117.317ZM193.875 129.007V130.769H195.637V129.007H193.875ZM181.844 129.007V127.245H180.082V129.007H181.844ZM181.844 144.627V146.389H194.764V144.627V142.865H181.844V144.627ZM194.764 144.627H193.002V157H194.764H196.526V144.627H194.764ZM194.764 157V155.238H167.147V157V158.762H194.764V157ZM167.147 157H168.909V90.8623H167.147H165.385V157H167.147ZM167.147 90.8623V92.6241H194.559V90.8623V89.1005H167.147V90.8623ZM194.559 90.8623H192.797V103.235H194.559H196.321V90.8623H194.559ZM194.559 103.235V101.474H181.844V103.235V104.997H194.559V103.235ZM181.844 103.235H180.082V117.317H181.844H183.606V103.235H181.844ZM181.844 117.317V119.079H193.875V117.317V115.556H181.844V117.317ZM193.875 117.317H192.114V129.007H193.875H195.637V117.317H193.875ZM193.875 129.007V127.245H181.844V129.007V130.769H193.875V129.007ZM181.844 129.007H180.082V144.627H181.844H183.606V129.007H181.844ZM249.514 113.25V115.012H251.276V113.25H249.514ZM235.022 113.25H233.26V115.012H235.022V113.25ZM230.613 104.09L228.851 104.064L228.851 104.077V104.09H230.613ZM232.937 115.711L232.246 117.332L232.377 117.388L232.516 117.422L232.937 115.711ZM239.739 117.386L240.192 115.683L240.176 115.679L240.16 115.675L239.739 117.386ZM247.669 121.795L246.35 122.964L246.358 122.972L247.669 121.795ZM220.359 154.334L219.251 155.703L219.257 155.709L220.359 154.334ZM216.052 132.562V130.8H214.291V132.562H216.052ZM230.75 132.562H232.512V130.8H230.75V132.562ZM231.331 145.276L229.961 146.385L229.977 146.404L229.993 146.423L231.331 145.276ZM234.68 145.345L233.435 144.099L233.418 144.116L233.401 144.133L234.68 145.345ZM232.459 129.759L233.034 128.093L232.958 128.067L232.881 128.048L232.459 129.759ZM227.058 128.426L227.481 126.715L227.443 126.706L227.406 126.699L227.058 128.426ZM218.411 123.88L219.782 122.774L218.411 123.88ZM220.12 94.2119L221.298 95.522L221.303 95.5169L220.12 94.2119ZM245.174 93.7334L244.064 95.1018L244.07 95.107L245.174 93.7334ZM249.514 113.25V111.488H235.022V113.25V115.012H249.514V113.25ZM235.022 113.25H236.784V104.295H235.022H233.26V113.25H235.022ZM235.022 104.295H236.784C236.784 103.232 236.556 102.106 235.79 101.235C234.987 100.321 233.876 100.004 232.801 100.004V101.766V103.527C233.008 103.527 233.112 103.557 233.147 103.571C233.173 103.58 233.159 103.579 233.143 103.561C233.118 103.533 233.26 103.671 233.26 104.295H235.022ZM232.801 101.766V100.004C231.773 100.004 230.696 100.287 229.894 101.139C229.115 101.967 228.866 103.047 228.851 104.064L230.613 104.09L232.375 104.116C232.382 103.583 232.509 103.501 232.46 103.554C232.436 103.579 232.42 103.58 232.45 103.57C232.489 103.556 232.596 103.527 232.801 103.527V101.766ZM230.613 104.09H228.851V112.396H230.613H232.375V104.09H230.613ZM230.613 112.396H228.851C228.851 113.477 229.127 114.507 229.751 115.398C230.369 116.279 231.244 116.904 232.246 117.332L232.937 115.711L233.628 114.09C233.081 113.857 232.794 113.599 232.637 113.375C232.487 113.161 232.375 112.864 232.375 112.396H230.613ZM232.937 115.711L232.516 117.422L239.318 119.096L239.739 117.386L240.16 115.675L233.358 114L232.937 115.711ZM239.739 117.386L239.286 119.088C242.576 119.964 244.871 121.295 246.35 122.964L247.669 121.795L248.987 120.626C246.912 118.285 243.92 116.676 240.192 115.683L239.739 117.386ZM247.669 121.795L246.358 122.972C247.751 124.524 248.607 127.052 248.607 130.887H250.369H252.131C252.131 126.609 251.186 123.076 248.98 120.618L247.669 121.795ZM250.369 130.887H248.607V141.961H250.369H252.131V130.887H250.369ZM250.369 141.961H248.607C248.607 146.571 247.223 149.942 244.632 152.318L245.823 153.616L247.014 154.915C250.485 151.731 252.131 147.331 252.131 141.961H250.369ZM245.823 153.616L244.632 152.318C242.021 154.713 238.25 156.024 233.074 156.024V157.786V159.548C238.835 159.548 243.563 158.08 247.014 154.915L245.823 153.616ZM233.074 157.786V156.024C227.669 156.024 223.893 154.909 221.461 152.959L220.359 154.334L219.257 155.709C222.567 158.362 227.268 159.548 233.074 159.548V157.786ZM220.359 154.334L221.468 152.965C219.085 151.036 217.814 148.246 217.814 144.319H216.052H214.291C214.291 149.098 215.891 152.983 219.251 155.703L220.359 154.334ZM216.052 144.319H217.814V132.562H216.052H214.291V144.319H216.052ZM216.052 132.562V134.323H230.75V132.562V130.8H216.052V132.562ZM230.75 132.562H228.988V143.431H230.75H232.512V132.562H230.75ZM230.75 143.431H228.988C228.988 144.494 229.268 145.528 229.961 146.385L231.331 145.276L232.7 144.168C232.619 144.068 232.512 143.871 232.512 143.431H230.75ZM231.331 145.276L229.993 146.423C230.803 147.368 231.917 147.756 233.074 147.756V145.994V144.232C232.884 144.232 232.785 144.202 232.745 144.186C232.713 144.172 232.693 144.158 232.668 144.13L231.331 145.276ZM233.074 145.994V147.756C234.161 147.756 235.179 147.38 235.959 146.556L234.68 145.345L233.401 144.133C233.362 144.175 233.309 144.232 233.074 144.232V145.994ZM234.68 145.345L235.926 146.591C236.741 145.776 237.092 144.732 237.092 143.636H235.33H233.568C233.568 143.953 233.486 144.048 233.435 144.099L234.68 145.345ZM235.33 143.636H237.092V133.279H235.33H233.568V143.636H235.33ZM235.33 133.279H237.092C237.092 132.079 236.742 130.958 235.977 130.021C235.233 129.108 234.199 128.496 233.034 128.093L232.459 129.759L231.884 131.424C232.633 131.683 233.034 131.987 233.247 132.248C233.439 132.484 233.568 132.793 233.568 133.279H235.33ZM232.459 129.759L232.881 128.048L227.481 126.715L227.058 128.426L226.636 130.136L232.037 131.469L232.459 129.759ZM227.058 128.426L227.406 126.699C223.681 125.949 221.236 124.578 219.782 122.774L218.411 123.88L217.039 124.986C219.186 127.648 222.506 129.307 226.711 130.153L227.058 128.426ZM218.411 123.88L219.782 122.774C218.333 120.976 217.472 118.177 217.472 114.104H215.711H213.949C213.949 118.6 214.888 122.318 217.039 124.986L218.411 123.88ZM215.711 114.104H217.472V105.047H215.711H213.949V114.104H215.711ZM215.711 105.047H217.472C217.472 100.879 218.79 97.7768 221.298 95.5219L220.12 94.2119L218.942 92.9019C215.571 95.9334 213.949 100.054 213.949 105.047H215.711ZM220.12 94.2119L221.303 95.5169C223.806 93.2467 227.589 91.9747 232.937 91.9747V90.2129V88.4511C227.074 88.4511 222.312 89.8451 218.936 92.9069L220.12 94.2119ZM232.937 90.2129V91.9747C237.961 91.9747 241.591 93.0962 244.064 95.1017L245.174 93.7334L246.283 92.3651C242.968 89.6766 238.441 88.4511 232.937 88.4511V90.2129ZM245.174 93.7334L244.07 95.107C246.495 97.0547 247.753 99.7562 247.753 103.44H249.514H251.276C251.276 98.8304 249.639 95.0605 246.277 92.3598L245.174 93.7334ZM249.514 103.44H247.753V113.25H249.514H251.276V103.44H249.514ZM275.933 90.8623V89.1005H274.171V90.8623H275.933ZM290.63 90.8623H292.392V89.1005H290.63V90.8623ZM290.63 157V158.762H292.392V157H290.63ZM275.933 157H274.171V158.762H275.933V157ZM275.933 129.417H277.694V127.655H275.933V129.417ZM271.523 129.417V127.655H269.762V129.417H271.523ZM271.523 157V158.762H273.285V157H271.523ZM256.826 157H255.064V158.762H256.826V157ZM256.826 90.8623V89.1005H255.064V90.8623H256.826ZM271.523 90.8623H273.285V89.1005H271.523V90.8623ZM271.523 117.044H269.762V118.806H271.523V117.044ZM275.933 117.044V118.806H277.694V117.044H275.933ZM275.933 90.8623V92.6241H290.63V90.8623V89.1005H275.933V90.8623ZM290.63 90.8623H288.868V157H290.63H292.392V90.8623H290.63ZM290.63 157V155.238H275.933V157V158.762H290.63V157ZM275.933 157H277.694V129.417H275.933H274.171V157H275.933ZM275.933 129.417V127.655H271.523V129.417V131.179H275.933V129.417ZM271.523 129.417H269.762V157H271.523H273.285V129.417H271.523ZM271.523 157V155.238H256.826V157V158.762H271.523V157ZM256.826 157H258.588V90.8623H256.826H255.064V157H256.826ZM256.826 90.8623V92.6241H271.523V90.8623V89.1005H256.826V90.8623ZM271.523 90.8623H269.762V117.044H271.523H273.285V90.8623H271.523ZM271.523 117.044V118.806H275.933V117.044V115.282H271.523V117.044ZM275.933 117.044H277.694V90.8623H275.933H274.171V117.044H275.933ZM327.712 94.6904L328.977 93.4641L327.712 94.6904ZM313.083 102.723L314.421 103.869L314.434 103.854L314.447 103.838L313.083 102.723ZM313.083 145.208L311.72 146.324L311.732 146.339L311.745 146.355L313.083 145.208ZM314.621 90.2129V91.9747C320.174 91.9747 324 93.3929 326.447 95.9167L327.712 94.6904L328.977 93.4641C325.636 90.018 320.735 88.4511 314.621 88.4511V90.2129ZM327.712 94.6904L326.447 95.9167C328.893 98.4394 330.291 102.531 330.291 108.567H332.053H333.815C333.815 102.071 332.319 96.9115 328.977 93.4641L327.712 94.6904ZM332.053 108.567H330.291V139.295H332.053H333.815V108.567H332.053ZM332.053 139.295H330.291C330.291 145.356 328.892 149.458 326.447 151.98L327.712 153.206L328.977 154.432C332.32 150.984 333.815 145.812 333.815 139.295H332.053ZM327.712 153.206L326.447 151.98C324 154.504 320.174 155.922 314.621 155.922V157.684V159.445C320.735 159.445 325.636 157.879 328.977 154.432L327.712 153.206ZM314.621 157.684V155.922C309.156 155.922 305.374 154.474 302.933 151.879C300.474 149.264 299.088 145.179 299.088 139.295H297.326H295.565C295.565 145.67 297.061 150.779 300.367 154.293C303.691 157.828 308.556 159.445 314.621 159.445V157.684ZM297.326 139.295H299.088V108.567H297.326H295.565V139.295H297.326ZM297.326 108.567H299.088C299.088 102.696 300.473 98.6194 302.932 96.0097C305.373 93.4198 309.155 91.9747 314.621 91.9747V90.2129V88.4511C308.557 88.4511 303.692 90.0651 300.368 93.5933C297.062 97.1018 295.565 102.203 295.565 108.567H297.326ZM317.014 143.123H318.776V104.773H317.014H315.252V143.123H317.014ZM317.014 104.773H318.776C318.776 103.64 318.547 102.461 317.789 101.547C316.978 100.569 315.832 100.209 314.69 100.209V101.971V103.732C314.903 103.732 315.011 103.765 315.049 103.781C315.077 103.792 315.076 103.795 315.077 103.796C315.093 103.816 315.252 104.039 315.252 104.773H317.014ZM314.69 101.971V100.209C313.513 100.209 312.472 100.687 311.72 101.607L313.083 102.723L314.447 103.838C314.501 103.772 314.533 103.757 314.539 103.754C314.547 103.751 314.587 103.732 314.69 103.732V101.971ZM313.083 102.723L311.745 101.576C310.968 102.483 310.706 103.635 310.706 104.773H312.468H314.23C314.23 104.135 314.378 103.919 314.421 103.869L313.083 102.723ZM312.468 104.773H310.706V143.123H312.468H314.23V104.773H312.468ZM312.468 143.123H310.706C310.706 144.268 310.971 145.408 311.72 146.324L313.083 145.208L314.447 144.092C314.375 144.005 314.23 143.755 314.23 143.123H312.468ZM313.083 145.208L311.745 146.355C312.508 147.245 313.543 147.688 314.69 147.688V145.926V144.164C314.575 144.164 314.526 144.144 314.511 144.138C314.499 144.132 314.469 144.118 314.421 144.061L313.083 145.208ZM314.69 145.926V147.688C315.832 147.688 316.978 147.327 317.789 146.35C318.547 145.435 318.776 144.257 318.776 143.123H317.014H315.252C315.252 143.858 315.093 144.081 315.077 144.1C315.076 144.101 315.077 144.105 315.049 144.116C315.011 144.131 314.903 144.164 314.69 144.164V145.926ZM367.563 90.8623H369.325V89.1005H367.563V90.8623ZM367.563 103.167V104.929H369.325V103.167H367.563ZM359.36 103.167V101.405H357.598V103.167H359.36ZM359.36 157V158.762H361.121V157H359.36ZM344.662 157H342.901V158.762H344.662V157ZM344.662 103.235H346.424V101.474H344.662V103.235ZM336.254 103.235H334.492V104.997H336.254V103.235ZM336.254 90.8623V89.1005H334.492V90.8623H336.254ZM367.563 90.8623H365.801V103.167H367.563H369.325V90.8623H367.563ZM367.563 103.167V101.405H359.36V103.167V104.929H367.563V103.167ZM359.36 103.167H357.598V157H359.36H361.121V103.167H359.36ZM359.36 157V155.238H344.662V157V158.762H359.36V157ZM344.662 157H346.424V103.235H344.662H342.901V157H344.662ZM344.662 103.235V101.474H336.254V103.235V104.997H344.662V103.235ZM336.254 103.235H338.016V90.8623H336.254H334.492V103.235H336.254ZM336.254 90.8623V92.6241H367.563V90.8623V89.1005H336.254V90.8623ZM405.636 113.25V115.012H407.398V113.25H405.636ZM391.144 113.25H389.382V115.012H391.144V113.25ZM386.735 104.09L384.973 104.064L384.973 104.077V104.09H386.735ZM389.059 115.711L388.368 117.332L388.499 117.388L388.638 117.422L389.059 115.711ZM395.861 117.386L396.314 115.683L396.298 115.679L396.282 115.675L395.861 117.386ZM403.791 121.795L402.472 122.964L402.48 122.972L403.791 121.795ZM376.481 154.334L375.372 155.703L375.379 155.709L376.481 154.334ZM372.174 132.562V130.8H370.413V132.562H372.174ZM386.872 132.562H388.633V130.8H386.872V132.562ZM387.453 145.276L386.083 146.385L386.099 146.404L386.115 146.423L387.453 145.276ZM390.802 145.345L389.556 144.099L389.54 144.116L389.523 144.133L390.802 145.345ZM388.581 129.759L389.156 128.093L389.08 128.067L389.003 128.048L388.581 129.759ZM383.18 128.426L383.602 126.715L383.565 126.706L383.528 126.699L383.18 128.426ZM374.533 123.88L375.904 122.774L374.533 123.88ZM376.242 94.2119L377.42 95.522L377.425 95.5169L376.242 94.2119ZM401.295 93.7334L400.186 95.1018L400.192 95.107L401.295 93.7334ZM405.636 113.25V111.488H391.144V113.25V115.012H405.636V113.25ZM391.144 113.25H392.906V104.295H391.144H389.382V113.25H391.144ZM391.144 104.295H392.906C392.906 103.232 392.677 102.106 391.912 101.235C391.109 100.321 389.998 100.004 388.922 100.004V101.766V103.527C389.13 103.527 389.234 103.557 389.269 103.571C389.294 103.58 389.281 103.579 389.265 103.561C389.24 103.533 389.382 103.671 389.382 104.295H391.144ZM388.922 101.766V100.004C387.895 100.004 386.818 100.287 386.016 101.139C385.237 101.967 384.988 103.047 384.973 104.064L386.735 104.09L388.496 104.116C388.504 103.583 388.631 103.501 388.582 103.554C388.558 103.579 388.542 103.58 388.572 103.57C388.611 103.556 388.718 103.527 388.922 103.527V101.766ZM386.735 104.09H384.973V112.396H386.735H388.497V104.09H386.735ZM386.735 112.396H384.973C384.973 113.477 385.249 114.507 385.873 115.398C386.491 116.279 387.365 116.904 388.368 117.332L389.059 115.711L389.75 114.09C389.203 113.857 388.915 113.599 388.759 113.375C388.609 113.161 388.497 112.864 388.497 112.396H386.735ZM389.059 115.711L388.638 117.422L395.44 119.096L395.861 117.386L396.282 115.675L389.48 114L389.059 115.711ZM395.861 117.386L395.408 119.088C398.698 119.964 400.993 121.295 402.472 122.964L403.791 121.795L405.109 120.626C403.034 118.285 400.042 116.676 396.314 115.683L395.861 117.386ZM403.791 121.795L402.48 122.972C403.873 124.524 404.729 127.052 404.729 130.887H406.491H408.253C408.253 126.609 407.308 123.076 405.102 120.618L403.791 121.795ZM406.491 130.887H404.729V141.961H406.491H408.253V130.887H406.491ZM406.491 141.961H404.729C404.729 146.571 403.344 149.942 400.754 152.318L401.945 153.616L403.136 154.915C406.606 151.731 408.253 147.331 408.253 141.961H406.491ZM401.945 153.616L400.754 152.318C398.143 154.713 394.372 156.024 389.196 156.024V157.786V159.548C394.957 159.548 399.685 158.08 403.136 154.915L401.945 153.616ZM389.196 157.786V156.024C383.791 156.024 380.015 154.909 377.583 152.959L376.481 154.334L375.379 155.709C378.689 158.362 383.389 159.548 389.196 159.548V157.786ZM376.481 154.334L377.589 152.965C375.207 151.036 373.936 148.246 373.936 144.319H372.174H370.413C370.413 149.098 372.012 152.983 375.372 155.703L376.481 154.334ZM372.174 144.319H373.936V132.562H372.174H370.413V144.319H372.174ZM372.174 132.562V134.323H386.872V132.562V130.8H372.174V132.562ZM386.872 132.562H385.11V143.431H386.872H388.633V132.562H386.872ZM386.872 143.431H385.11C385.11 144.494 385.389 145.528 386.083 146.385L387.453 145.276L388.822 144.168C388.741 144.068 388.633 143.871 388.633 143.431H386.872ZM387.453 145.276L386.115 146.423C386.925 147.368 388.039 147.756 389.196 147.756V145.994V144.232C389.006 144.232 388.907 144.202 388.867 144.186C388.834 144.172 388.815 144.158 388.79 144.13L387.453 145.276ZM389.196 145.994V147.756C390.283 147.756 391.301 147.38 392.081 146.556L390.802 145.345L389.523 144.133C389.484 144.175 389.431 144.232 389.196 144.232V145.994ZM390.802 145.345L392.048 146.591C392.863 145.776 393.213 144.732 393.213 143.636H391.452H389.69C389.69 143.953 389.608 144.048 389.556 144.099L390.802 145.345ZM391.452 143.636H393.213V133.279H391.452H389.69V143.636H391.452ZM391.452 133.279H393.213C393.213 132.079 392.863 130.958 392.099 130.021C391.355 129.108 390.321 128.496 389.156 128.093L388.581 129.759L388.006 131.424C388.754 131.683 389.156 131.987 389.369 132.248C389.561 132.484 389.69 132.793 389.69 133.279H391.452ZM388.581 129.759L389.003 128.048L383.602 126.715L383.18 128.426L382.758 130.136L388.158 131.469L388.581 129.759ZM383.18 128.426L383.528 126.699C379.803 125.949 377.358 124.578 375.904 122.774L374.533 123.88L373.161 124.986C375.308 127.648 378.628 129.307 382.833 130.153L383.18 128.426ZM374.533 123.88L375.904 122.774C374.455 120.976 373.594 118.177 373.594 114.104H371.833H370.071C370.071 118.6 371.01 122.318 373.161 124.986L374.533 123.88ZM371.833 114.104H373.594V105.047H371.833H370.071V114.104H371.833ZM371.833 105.047H373.594C373.594 100.879 374.912 97.7768 377.42 95.5219L376.242 94.2119L375.064 92.9019C371.692 95.9334 370.071 100.054 370.071 105.047H371.833ZM376.242 94.2119L377.425 95.5169C379.928 93.2467 383.711 91.9747 389.059 91.9747V90.2129V88.4511C383.196 88.4511 378.434 89.8451 375.058 92.9069L376.242 94.2119ZM389.059 90.2129V91.9747C394.082 91.9747 397.713 93.0962 400.186 95.1017L401.295 93.7334L402.405 92.3651C399.09 89.6766 394.563 88.4511 389.059 88.4511V90.2129ZM401.295 93.7334L400.192 95.107C402.617 97.0547 403.874 99.7562 403.874 103.44H405.636H407.398C407.398 98.8304 405.761 95.0605 402.399 92.3598L401.295 93.7334ZM405.636 103.44H403.874V113.25H405.636H407.398V103.44H405.636Z" fill="white" mask="url(#path-3-outside-2_1_414)"/>
<path d="M20.4183 206.982L21.0491 199.645L23.2073 180.752H38.4476L26.9593 229.162V245H12.6819V229.229L1.12726 180.752H16.6995L18.9905 199.645L19.555 206.982H20.4183ZM55.4462 180.121C61.1129 180.121 65.3518 181.571 68.163 184.471C70.9742 187.37 72.3798 191.864 72.3798 197.951V227.801C72.3798 233.91 70.9742 238.415 68.163 241.314C65.3518 244.214 61.1129 245.664 55.4462 245.664C44.2457 245.664 38.6455 239.71 38.6455 227.801V197.951C38.6455 186.064 44.2457 180.121 55.4462 180.121ZM57.7705 231.52V194.266C57.7705 192.451 57.0179 191.543 55.5126 191.543C54.8707 191.543 54.3505 191.786 53.9521 192.273C53.5537 192.738 53.3544 193.402 53.3544 194.266V231.52C53.3544 232.383 53.5537 233.058 53.9521 233.545C54.3505 234.01 54.8707 234.242 55.5126 234.242C57.0179 234.242 57.7705 233.335 57.7705 231.52ZM110.263 180.752V231.619C110.263 236.29 108.824 239.82 105.947 242.211C103.069 244.579 98.9742 245.764 93.6617 245.764C82.8818 245.764 77.4807 241.071 77.4586 231.686V180.752H91.7691V231.619C91.7691 233.39 92.4443 234.264 93.7945 234.242C95.1891 234.242 95.8863 233.368 95.8863 231.619V180.752H110.263ZM146.552 180.752C151.532 180.752 155.406 182.069 158.173 184.703C160.94 187.315 162.323 191.255 162.323 196.523V229.561C162.323 234.63 160.918 238.47 158.106 241.082C155.295 243.694 151.444 245 146.552 245H129.22V180.752H146.552ZM147.714 230.092V195.627C147.714 193.723 146.917 192.771 145.323 192.771H143.497V232.98H145.257C146.895 232.958 147.714 231.995 147.714 230.092ZM183.804 180.121C189.471 180.121 193.71 181.571 196.521 184.471C199.332 187.37 200.738 191.864 200.738 197.951V227.801C200.738 233.91 199.332 238.415 196.521 241.314C193.71 244.214 189.471 245.664 183.804 245.664C172.604 245.664 167.003 239.71 167.003 227.801V197.951C167.003 186.064 172.604 180.121 183.804 180.121ZM186.128 231.52V194.266C186.128 192.451 185.376 191.543 183.871 191.543C183.229 191.543 182.709 191.786 182.31 192.273C181.912 192.738 181.712 193.402 181.712 194.266V231.52C181.712 232.383 181.912 233.058 182.31 233.545C182.709 234.01 183.229 234.242 183.871 234.242C185.376 234.242 186.128 233.335 186.128 231.52ZM226.901 212.295L225.971 197.885V180.752H239.617V245H225.772L219.297 211.465H218.633L219.496 226.174V245H205.916V180.752H220.194L226.236 212.295H226.901ZM258.774 180.752L257.214 207.182H247.684L246.124 180.752H258.774ZM293.703 180.752V192.705H285.734V245H271.456V192.771H263.289V180.752H293.703ZM339.255 180.752V192.705H331.286V245H317.009V192.771H308.841V180.752H339.255ZM359.773 245L359.109 233.312L353.464 233.246L352.767 245H338.025L344.831 180.752H368.074L374.681 245H359.773ZM354.195 221.891H358.411L357.249 201.205L356.785 193.535H355.888L355.423 201.205L354.195 221.891ZM413.096 245H397.557L392.842 216.777H392.045V245H377.768V180.752H392.111L392.045 208.41H392.775L397.557 180.752H412.432L405.891 211.465L413.096 245ZM430.327 232.98H442.878V245H416.049V180.752H442.678V192.771H430.327V206.451H442.014V217.807H430.327V232.98Z" fill="#007B34"/>
</svg>
