<svg width="431" height="246" viewBox="0 0 431 246" fill="none" xmlns="http://www.w3.org/2000/svg">
<path d="M125.084 26.25H110.592V17.2949C110.592 15.6087 109.851 14.7656 108.37 14.7656C106.934 14.7656 106.205 15.5404 106.183 17.0898V25.3955C106.183 26.945 106.957 28.0501 108.507 28.7109L115.309 30.3857C118.818 31.32 121.461 32.7897 123.238 34.7949C125.038 36.8001 125.938 39.8307 125.938 43.8867V54.9609C125.938 59.9512 124.423 63.8363 121.392 66.6162C118.362 69.3962 114.112 70.7861 108.643 70.7861C103.038 70.7861 98.7997 69.6354 95.9286 67.334C93.0575 65.0098 91.622 61.6715 91.622 57.3193V45.5615H106.319V56.4307C106.319 57.1826 106.513 57.7979 106.9 58.2764C107.31 58.7549 107.892 58.9941 108.643 58.9941C109.304 58.9941 109.84 58.7777 110.25 58.3447C110.683 57.9118 110.899 57.3421 110.899 56.6357V46.2793C110.899 44.5931 109.942 43.4196 108.028 42.7588L102.628 41.4258C98.663 40.6283 95.7805 39.113 93.9804 36.8799C92.1802 34.6468 91.2802 31.3883 91.2802 27.1045V18.0469C91.2802 13.4668 92.7499 9.85514 95.6894 7.21191C98.6288 4.5459 102.901 3.21289 108.507 3.21289C113.77 3.21289 117.849 4.38639 120.743 6.7334C123.637 9.05762 125.084 12.2933 125.084 16.4404V26.25ZM159.018 3.8623V16.167H150.815V70H136.118V16.2354H127.71V3.8623H159.018ZM179.52 70L178.837 57.9688L173.026 57.9004L172.309 70H157.133L164.14 3.8623H188.065L194.867 70H179.52ZM173.778 46.2109H178.119L176.923 24.917L176.444 17.0215H175.521L175.043 24.917L173.778 46.2109ZM224.153 3.8623V16.167H215.95V70H201.253V16.2354H192.845V3.8623H224.153ZM242.16 57.627H255.08V70H227.463V3.8623H254.875V16.2354H242.16V30.3174H254.191V42.0068H242.16V57.627ZM301.895 3.8623V16.167H293.691V70H278.994V16.2354H270.586V3.8623H301.895ZM321.44 3.21289C327.273 3.21289 331.636 4.7054 334.53 7.69043C337.424 10.6755 338.871 15.3011 338.871 21.5674V52.2949C338.871 58.584 337.424 63.221 334.53 66.2061C331.636 69.1911 327.273 70.6836 321.44 70.6836C309.91 70.6836 304.145 64.554 304.145 52.2949V21.5674C304.145 9.33105 309.91 3.21289 321.44 3.21289ZM323.832 56.123V17.7734C323.832 15.9049 323.057 14.9707 321.508 14.9707C320.847 14.9707 320.312 15.2214 319.901 15.7227C319.491 16.2012 319.286 16.8848 319.286 17.7734V56.123C319.286 57.0117 319.491 57.7067 319.901 58.208C320.312 58.6865 320.847 58.9258 321.508 58.9258C323.057 58.9258 323.832 57.9915 323.832 56.123ZM93.0917 116.333L92.1347 101.499V83.8623H106.183V150H91.9296L85.2646 115.479H84.581L85.4696 130.62V150H71.4901V83.8623H86.1874L92.4081 116.333H93.0917ZM131.162 150L130.478 137.969L124.668 137.9L123.95 150H108.774L115.781 83.8623H139.707L146.509 150H131.162ZM125.42 126.211H129.761L128.564 104.917L128.086 97.0215H127.163L126.685 104.917L125.42 126.211ZM175.795 83.8623V96.167H167.592V150H152.894V96.2354H144.486V83.8623H175.795ZM179.104 83.8623H193.802V150H179.104V83.8623ZM215.808 83.2129C221.641 83.2129 226.005 84.7054 228.898 87.6904C231.792 90.6755 233.239 95.3011 233.239 101.567V132.295C233.239 138.584 231.792 143.221 228.898 146.206C226.005 149.191 221.641 150.684 215.808 150.684C204.278 150.684 198.513 144.554 198.513 132.295V101.567C198.513 89.3311 204.278 83.2129 215.808 83.2129ZM218.2 136.123V97.7734C218.2 95.9049 217.425 94.9707 215.876 94.9707C215.215 94.9707 214.68 95.2214 214.27 95.7227C213.859 96.2012 213.654 96.8848 213.654 97.7734V136.123C213.654 137.012 213.859 137.707 214.27 138.208C214.68 138.687 215.215 138.926 215.876 138.926C217.425 138.926 218.2 137.992 218.2 136.123ZM259.552 116.333L258.595 101.499V83.8623H272.643V150H258.39L251.725 115.479H251.041L251.93 130.62V150H237.95V83.8623H252.647L258.868 116.333H259.552ZM297.622 150L296.939 137.969L291.128 137.9L290.41 150H275.234L282.241 83.8623H306.167L312.969 150H297.622ZM291.88 126.211H296.221L295.024 104.917L294.546 97.0215H293.623L293.145 104.917L291.88 126.211ZM330.224 137.627H341.059V150H315.526V83.8623H330.224V137.627ZM358.758 134.517V150H344.881V134.517H358.758Z" fill="white"/>
<path d="M39.7983 235.144H24.5883L22.5034 213.098H19.4272V235.144H4.72994V169.006H23.5288C28.6102 169.006 32.4269 170.271 34.979 172.8C37.531 175.306 38.8071 178.895 38.8071 183.566V196.418C38.8071 200.565 37.7361 203.903 35.5942 206.433L39.7983 235.144ZM19.4272 201.955H20.6577C22.7085 201.955 23.7452 200.417 23.768 197.341V185.378C23.768 182.712 22.7312 181.379 20.6577 181.379H19.4272V201.955ZM58.2837 222.771H71.2036V235.144H43.5864V169.006H70.9985V181.379H58.2837V195.461H70.3149V207.15H58.2837V222.771ZM95.1235 235.144L94.4399 223.112L88.6294 223.044L87.9116 235.144H72.7358L79.7427 169.006H103.668L110.47 235.144H95.1235ZM89.3814 211.354H93.7222L92.5259 190.061L92.0474 182.165H91.1245L90.646 190.061L89.3814 211.354ZM127.725 222.771H138.56V235.144H113.028V169.006H127.725V222.771Z" fill="white"/>
<path d="M186.102 235.144H170.893L168.808 213.098H165.731V235.144H151.034V169.006H169.833C174.914 169.006 178.731 170.271 181.283 172.8C183.835 175.306 185.111 178.895 185.111 183.566V196.418C185.111 200.565 184.04 203.903 181.898 206.433L186.102 235.144ZM165.731 201.955H166.962C169.013 201.955 170.049 200.417 170.072 197.341V185.378C170.072 182.712 169.035 181.379 166.962 181.379H165.731V201.955ZM204.588 222.771H217.508V235.144H189.891V169.006H217.303V181.379H204.588V195.461H216.619V207.15H204.588V222.771ZM258.381 211.354H259.201L259.577 201.545L261.252 169.006H277.145L270.48 235.144H251.511L248.981 202.673L248.503 190.539H247.648L247.238 202.673L244.88 235.144H225.466L218.903 169.006H234.934L236.745 201.545L237.019 211.354H237.873L238.352 201.545L240.881 169.006H255.305L257.936 201.545L258.381 211.354ZM298.194 235.144L297.511 223.112L291.7 223.044L290.982 235.144H275.807L282.813 169.006H306.739L313.541 235.144H298.194ZM292.452 211.354H296.793L295.597 190.061L295.118 182.165H294.195L293.717 190.061L292.452 211.354ZM351.167 235.144H335.957L333.872 213.098H330.796V235.144H316.099V169.006H334.897C339.979 169.006 343.796 170.271 346.348 172.8C348.9 175.306 350.176 178.895 350.176 183.566V196.418C350.176 200.565 349.105 203.903 346.963 206.433L351.167 235.144ZM330.796 201.955H332.026C334.077 201.955 335.114 200.417 335.137 197.341V185.378C335.137 182.712 334.1 181.379 332.026 181.379H330.796V201.955ZM372.797 169.006C377.924 169.006 381.912 170.362 384.76 173.073C387.608 175.762 389.032 179.818 389.032 185.241V219.25C389.032 224.468 387.585 228.422 384.691 231.11C381.798 233.799 377.833 235.144 372.797 235.144H354.955V169.006H372.797ZM373.993 219.797V184.318C373.993 182.359 373.173 181.379 371.532 181.379H369.652V222.771H371.464C373.15 222.748 373.993 221.757 373.993 219.797ZM426.966 191.394H412.474V182.438C412.474 180.752 411.733 179.909 410.252 179.909C408.816 179.909 408.087 180.684 408.065 182.233V190.539C408.065 192.089 408.839 193.194 410.389 193.854L417.19 195.529C420.7 196.464 423.343 197.933 425.12 199.938C426.92 201.944 427.82 204.974 427.82 209.03V220.104C427.82 225.095 426.305 228.98 423.274 231.76C420.244 234.54 415.994 235.93 410.525 235.93C404.92 235.93 400.682 234.779 397.811 232.478C394.94 230.153 393.504 226.815 393.504 222.463V210.705H408.201V221.574C408.201 222.326 408.395 222.941 408.782 223.42C409.192 223.898 409.773 224.138 410.525 224.138C411.186 224.138 411.722 223.921 412.132 223.488C412.565 223.055 412.781 222.486 412.781 221.779V211.423C412.781 209.737 411.824 208.563 409.91 207.902L404.51 206.569C400.545 205.772 397.662 204.257 395.862 202.023C394.062 199.79 393.162 196.532 393.162 192.248V183.19C393.162 178.61 394.632 174.999 397.571 172.355C400.511 169.689 404.783 168.356 410.389 168.356C415.652 168.356 419.731 169.53 422.625 171.877C425.519 174.201 426.966 177.437 426.966 181.584V191.394Z" fill="#007B34"/>
</svg>
